<?xml version="1.0" encoding="UTF-8"?>
<svg id="Layer_1" data-name="Layer 1" xmlns="http://www.w3.org/2000/svg" viewBox="0 0 552.07 162.2">
  <defs>
    <style>
      .cls-1 {
        fill: #fff;
      }
    </style>
  </defs>
  <path class="cls-1" d="M146.12,81.46l3.13-3.22c7.86-8.57,12.24-19.65,12.24-31.35C161.49,21.44,140.76,.71,115.31,.71c-10.72,0-21.26,3.75-29.47,10.63l-4.73,4.38-3.57-3.48C68.95,4.38,57.88,0,46.18,0,20.72,0,0,20.72,0,46.18,0,56.9,3.75,67.43,10.63,75.65l4.82,5.18-3.22,3.22C4.38,92.62,0,103.7,0,115.4c0,25.46,20.72,46.18,46.18,46.18,10.72,0,21.26-3.75,29.47-10.63l4.73-4.47,3.48,3.48c8.57,7.86,19.65,12.24,31.35,12.24,25.46,0,46.18-20.72,46.18-46.18,0-10.72-3.75-21.26-10.63-29.47l-4.64-5.09Zm-10.9,18.13c3.84,4.64,5.89,10.45,5.89,16.43,0,14.29-11.61,25.9-25.9,25.9-5.89,0-11.7-2.05-16.35-5.81l-46.09-46.09,3.3-3.22,45.19,45.55,.27,.27c3.84,3.22,8.75,5,13.75,5,11.88,0,21.44-9.65,21.44-21.44,0-5.36-1.96-10.54-5.54-14.38l-2.41-2.77,3.13-3.22,3.3,3.75Zm-97.09,5.09l19.2,18.94-1.96,1.7c-2.5,2.23-5.72,3.48-9.02,3.48-7.41,0-13.4-5.98-13.4-13.4,0-3.13,1.07-6.07,3.04-8.49l2.14-2.23Zm-8.13-3.3l-.27,.27c-3.22,3.84-5,8.75-5,13.75,0,11.88,9.65,21.44,21.44,21.44,5.36,0,10.54-1.96,14.38-5.54l2.32-2.05,3.22,3.13-3.39,2.86c-4.64,3.84-10.45,5.89-16.43,5.89-14.29,0-25.9-11.61-25.9-25.9,0-5.89,2.05-11.7,5.81-16.35l45.73-45.82,3.22,3.3L30.01,101.38Zm8.4-43.68l-2.05-2.41c-2.23-2.5-3.48-5.72-3.48-9.02,0-7.41,5.98-13.4,13.4-13.4,3.13,0,6.07,1.07,8.49,3.04l2.68,2.68-19.02,19.11Zm21.88-27.69l-.27-.27c-3.84-3.22-8.75-5-13.75-5-11.88,0-21.44,9.65-21.44,21.44,0,5.36,1.96,10.54,5.54,14.38l2.41,2.77-3.13,3.22-3.22-3.84c-3.84-4.64-5.89-10.45-5.89-16.43,0-14.29,11.61-25.9,25.9-25.9,5.89,0,11.7,2.05,16.35,5.81l46.09,46.09-3.3,3.22L60.29,30.01Zm63.15,27.69l-19.2-18.94,1.96-1.7c2.5-2.23,5.72-3.48,9.02-3.48,7.41,0,13.4,5.98,13.4,13.4,0,3.13-1.07,6.07-3.04,8.49l-2.14,2.23Zm8.13,3.3l.27-.27c3.22-3.84,5-8.75,5-13.75,0-11.88-9.65-21.44-21.44-21.44-5.36,0-10.54,1.96-14.38,5.54l-2.32,2.05-3.22-3.13,3.39-2.86c4.64-3.84,10.45-5.89,16.43-5.89,14.29,0,25.9,11.61,25.9,25.9,0,5.89-2.05,11.7-5.81,16.35l-45.73,45.73-3.22-3.3,45.11-44.93Zm-31.8,20.19l-19.11,18.94-18.85-18.94,19.11-18.94,18.85,18.94Zm23.4,23.49l2.05,2.32c2.23,2.5,3.48,5.72,3.48,9.02,0,7.41-5.98,13.4-13.4,13.4-3.13,0-6.07-1.07-8.49-3.04l-2.68-2.68,19.02-19.02ZM91.01,17.51c6.79-5.63,15.45-8.66,24.29-8.66,21.08,0,38.14,17.15,38.14,38.14,0,9.65-3.57,18.85-10,25.81l-44.93,45.37-3.3-3.3,45.91-45.91,.27-.27c5-6.07,7.77-13.67,7.77-21.53,0-18.67-15.18-33.94-33.94-33.94-7.86,0-15.54,2.77-21.61,7.77l-3.93,3.39-2.86-2.77,4.2-4.11ZM16.79,70.56c-5.63-6.79-8.66-15.45-8.66-24.29C8.13,25.19,25.28,8.13,46.27,8.13c9.65,0,18.85,3.57,25.81,10l45.73,45.28-3.3,3.3L68.15,20.45l-.27-.27c-6.07-5-13.75-7.77-21.53-7.77-18.67,0-33.94,15.18-33.94,33.94,0,7.86,2.77,15.54,7.77,21.61l3.75,4.38-2.77,2.86-4.38-4.64Zm53.68,74.31c-6.79,5.63-15.45,8.66-24.29,8.66-21.08,0-38.14-17.15-38.14-38.14,0-9.65,3.57-18.85,10-25.81L62.97,44.12l3.3,3.3L20.36,93.43l-.27,.27c-5,6.07-7.77,13.75-7.77,21.53,0,18.67,15.18,33.94,33.94,33.94,7.86,0,15.54-2.77,21.61-7.77l4.02-3.39,2.86,2.77-4.29,4.11Zm44.84,9.38c-9.65,0-18.85-3.57-25.81-10l-45.73-45.19,3.3-3.3,46.27,46.18,.27,.27c6.07,5,13.67,7.77,21.53,7.77,18.67,0,33.94-15.18,33.94-33.94,0-7.86-2.77-15.54-7.77-21.61l-3.66-4.38,2.77-2.86,4.29,4.64c5.63,6.79,8.66,15.45,8.66,24.29,.09,20.99-16.97,38.14-38.05,38.14Z"/>
  <g>
    <path class="cls-1" d="M264.02,48.41v-5.18h-29.03v5.27h1.43c2.68,0,4.91,.36,6.79,1.07,1.7,.63,2.77,1.43,3.22,2.32,.36,.71,.8,2.41,.8,6.07v39.03l-40.73-53.77h-23.49v5.27h1.43c4.82,0,6.34,.45,6.88,.63,.71,.36,1.34,1.25,1.7,2.68,.45,1.79,.71,5.36,.71,10.81v38.32c0,5.27-.27,7.23-.45,7.95-.27,.8-1.07,1.61-2.59,2.41-1.61,.89-4.11,1.52-7.32,1.7l-1.34,.09v5.18h29.83v-5.27h-1.34c-3.57,0-6.25-.54-7.95-1.43-1.61-.89-2.59-1.88-2.86-2.86-.27-.8-.54-2.86-.54-7.77V54.93l49.04,65.02h4.38V58.68c0-3.66,.36-5.36,.63-6.07,.36-.98,1.25-1.79,2.68-2.59,1.61-.8,3.84-1.34,6.7-1.61h1.43Z"/>
    <path class="cls-1" d="M286.62,70.11c-6.88,0-12.77,2.41-17.51,7.15-4.73,4.73-7.15,10.72-7.15,17.77,0,7.59,2.41,13.75,7.23,18.31s10.63,6.79,17.42,6.79,12.68-2.23,17.42-6.7c4.82-4.47,7.32-10.63,7.32-18.4,0-6.97-2.41-12.95-7.15-17.77-4.82-4.73-10.72-7.15-17.6-7.15Zm-9.65,9.56c2.23-2.95,5.36-4.29,9.56-4.29s7.41,1.43,9.56,4.38c2.23,3.04,3.39,8.22,3.39,15.54s-1.16,12.59-3.39,15.45c-2.23,2.77-5.36,4.11-9.56,4.11s-7.23-1.34-9.56-4.11c-2.32-2.86-3.48-8.04-3.48-15.45,.09-7.32,1.25-12.59,3.48-15.63Z"/>
    <path class="cls-1" d="M365.13,112.45c-.63-.36-.89-.8-.98-1.52s-.27-2.86-.27-9.02v-13.58c0-4.2-.36-7.41-.98-9.65-.71-2.41-2.41-4.47-4.91-6.16-2.41-1.61-5.63-2.41-9.38-2.41-3.3,0-6.43,.8-9.47,2.41-2.14,1.16-4.2,2.68-6.16,4.64-.27-2.41-.63-4.47-1.25-6.16l-.36-.89h-2.41l-.36,.09c-4.02,1.16-7.95,1.96-11.79,2.41l-1.25,.18v5.09h1.43c3.04,0,4.11,.36,4.56,.63,.63,.36,.89,.8,1.07,1.52,.09,.71,.27,2.77,.27,9.02v13.04c0,6.79-.18,8.66-.27,9.2-.18,.63-.45,.98-1.07,1.34-.45,.18-1.61,.63-4.47,.63h-1.43v5.27h24.92v-5.27h-1.43c-3.04,0-4.11-.36-4.56-.63-.63-.36-.89-.8-1.07-1.52-.09-.71-.27-2.86-.27-9.02v-17.42c1.88-2.77,3.93-4.82,6.07-6.25,3.93-2.59,8.75-2.77,11.43-.71,1.25,.98,1.96,1.96,2.23,3.13,.27,1.34,.45,3.75,.45,7.06v14.11c0,5.98-.09,8.04-.18,8.66-.09,.63-.36,1.25-.89,1.79-.18,.18-.98,.71-4.02,.71h-2.41v5.27h25.19v-5.27h-1.43c-3.04-.09-4.2-.45-4.56-.71Z"/>
    <path class="cls-1" d="M392.1,112.36c-.54-.45-.89-.98-.98-1.79-.18-1.16-.18-4.02-.18-8.66v-31.89h-2.59l-.45,.09c-3.39,1.16-8.22,2.14-14.38,2.77l-1.25,.09v5.18h2.86c2.41,0,3.39,.18,3.75,.36,.54,.18,.89,.8,1.07,1.34,.18,.45,.63,2.14,.63,8.84v13.22c0,5.98-.09,8.04-.18,8.66-.09,.71-.36,1.25-.89,1.79-.18,.18-.98,.71-3.93,.71h-3.39v5.27h26.35v-5.27h-2.5c-2.59,0-3.57-.45-3.93-.71Z"/>
    <path class="cls-1" d="M384.78,56.27c1.88,0,3.57-.71,4.91-2.05s1.96-3.04,1.96-5-.71-3.57-1.96-4.91c-2.68-2.77-7.15-2.77-9.82,0-1.34,1.34-2.05,3.04-2.05,4.91s.71,3.66,2.05,5c1.34,1.34,3.04,2.05,4.91,2.05Z"/>
    <path class="cls-1" d="M482.13,48.41v-5.27h-24.92v5.27h1.34c6.52,.18,7.32,2.86,7.32,4.91,0,1.25-.71,4.47-4.11,12.5l-15.45,36.89-19.47-45.02c-2.14-4.91-2.41-6.34-2.41-6.7,0-1.25,.54-1.7,1.16-1.96,.8-.36,2.68-.71,7.23-.71h1.43v-5.27h-33.94v5.27h1.34c3.13,.09,5.27,.63,6.61,1.61,1.34,.98,2.68,3.13,3.93,6.25,.98,2.59,1.79,4.38,2.23,5.36l25.37,58.32h5.18l21.88-51.98,4.82-11.34c1.16-2.77,2.5-4.82,4.11-6.25,1.43-1.34,3.13-1.96,5-2.05l1.34,.18Z"/>
    <path class="cls-1" d="M492.05,56.27c1.88,0,3.57-.71,4.91-2.05s1.96-3.04,1.96-5-.71-3.57-1.96-4.91c-2.68-2.77-7.15-2.77-9.82,0-1.34,1.34-2.05,3.04-2.05,4.91s.71,3.66,2.05,5c1.34,1.34,3.04,2.05,4.91,2.05Z"/>
    <path class="cls-1" d="M499.37,112.36c-.54-.45-.89-.98-.98-1.79-.18-1.16-.18-4.02-.18-8.66v-31.89h-2.59l-.45,.09c-3.39,1.16-8.22,2.14-14.38,2.77l-1.25,.09v5.18h2.86c2.41,0,3.39,.18,3.75,.36,.54,.18,.89,.8,1.07,1.34,.18,.45,.63,2.14,.63,8.84v13.22c0,5.98-.09,8.04-.18,8.66-.09,.71-.36,1.25-.89,1.79-.18,.18-.98,.71-3.93,.71h-3.22v5.27h26.35v-5.27h-2.5c-2.77,0-3.75-.45-4.11-.71Z"/>
    <path class="cls-1" d="M546.71,105.75l-.36,.8c-2.5,5.27-6.52,7.86-12.5,7.86-4.29,0-7.41-1.7-9.56-5.09-2.23-3.57-3.39-9.2-3.39-16.52,0-.8,0-1.88,.09-3.3h30.64l-.09-1.52c-.18-4.38-1.96-8.49-5.36-12.15-3.39-3.75-8.22-5.72-14.29-5.72-6.43,0-11.97,2.5-16.26,7.32s-6.43,10.9-6.43,18.13c0,5.09,1.16,9.56,3.39,13.13s5.09,6.43,8.57,8.4c3.48,1.96,7.23,2.95,11.16,2.95,4.2,0,8.22-1.07,11.79-3.3,3.66-2.23,6.16-5.36,7.41-9.29l.54-1.88h-5.36v.18Zm-7.15-21.26h-17.95c1.34-6.16,4.64-9.2,9.91-9.2,2.32,0,4.2,.71,5.81,2.23,1.52,1.43,2.32,3.48,2.32,6.25-.09,.18-.09,.45-.09,.71Z"/>
  </g>
</svg>