<?xml version="1.0" encoding="UTF-8"?>
<svg id="Layer_2" data-name="Layer 2" xmlns="http://www.w3.org/2000/svg" viewBox="0 0 151.42 173.06">
  <defs>
    <style>
      .cls-1 {
        fill: #fff;
      }
    </style>
  </defs>
  <g id="Layer_1-2" data-name="Layer 1">
    <path class="cls-1" d="M151.42,70.97c-14.88,.04-29.4-4.61-41.51-13.27v60.42c-.01,30.35-24.62,54.95-54.98,54.94C24.58,173.04-.01,148.43,0,118.08c.01-30.35,24.62-54.95,54.98-54.94,2.52,0,5.03,.17,7.53,.52v30.39c-13.29-4.18-27.45,3.2-31.64,16.5s3.2,27.45,16.5,31.64,27.45-3.2,31.64-16.5c.77-2.45,1.16-5,1.16-7.57V0h29.75c-.02,2.51,.19,5.02,.63,7.5h0c2.09,11.16,8.68,20.97,18.23,27.12,6.72,4.44,14.6,6.81,22.65,6.81v29.54Z"/>
  </g>
</svg>