<?xml version="1.0" encoding="UTF-8"?>
<svg id="Layer_2" data-name="Layer 2" xmlns="http://www.w3.org/2000/svg" viewBox="0 0 187.07 131.53">
  <defs>
    <style>
      .cls-1 {
        fill: #fff;
      }
    </style>
  </defs>
  <g id="Layer_1-2" data-name="Layer 1">
    <path class="cls-1" d="M183.16,20.58c-2.15-8.1-8.49-14.48-16.54-16.65C152.03,0,93.53,0,93.53,0c0,0-58.5,0-73.09,3.93C12.4,6.1,6.06,12.48,3.91,20.58,0,35.26,0,65.9,0,65.9c0,0,0,30.64,3.91,45.32,2.15,8.1,8.49,14.21,16.54,16.38,14.59,3.93,73.09,3.93,73.09,3.93,0,0,58.5,0,73.09-3.93,8.05-2.17,14.39-8.28,16.54-16.38,3.91-14.68,3.91-45.32,3.91-45.32,0,0,0-30.64-3.91-45.32ZM74.4,93.71V38.08l48.89,27.82-48.89,27.81h0Z"/>
  </g>
</svg>