<?xml version="1.0" encoding="UTF-8"?>
<svg xmlns="http://www.w3.org/2000/svg" xmlns:xlink="http://www.w3.org/1999/xlink" viewBox="0 0 1125.42 2000.75">
  <defs>
    <style>
      .cls-1 {
        isolation: isolate;
      }

      .cls-2 {
        fill: #fbd2c7;
      }

      .cls-3 {
        mix-blend-mode: screen;
        opacity: .06;
      }

      .cls-4 {
        clip-path: url(#clippath);
      }

      .cls-5 {
        fill: none;
      }
    </style>
    <clipPath id="clippath">
      <rect class="cls-5" x="-437.67" y="437.67" width="2000.75" height="1125.42" transform="translate(-437.67 1563.09) rotate(-90)"/>
    </clipPath>
  </defs>
  <g class="cls-1">
    <g id="Layer_2" data-name="Layer 2">
      <g id="Layer_1-2" data-name="Layer 1">
        <g class="cls-3">
          <g class="cls-4">
            <g>
              <path class="cls-2" d="M1300.18,774.94c0-112.04-91.16-203.19-203.2-203.19-50.83,0-99.47,18.86-136.91,53.05l-40.66,35.53,291.44,286.34,43.35-43.02,.36-.39c29.43-36.09,45.64-81.66,45.64-128.32Zm-89.37,157.48l-276.48-271.65,31.62-27.61,.92-.82c35.62-32.53,81.83-50.44,130.12-50.44,106.45,0,193.06,86.6,193.06,193.05,0,44.24-15.34,87.45-43.19,121.7l-36.04,35.77Z"/>
              <path class="cls-2" d="M103.38,571.75c-112.04,0-203.2,91.15-203.2,203.19,0,50.83,18.86,99.47,53.07,136.93l31.06,35.53,286.55-290.62-38.76-39.04-.39-.36c-36.09-29.43-81.66-45.64-128.32-45.64Zm121.71,53.33l31.49,31.73L-15.24,932.5l-23.18-26.54-.81-.9c-32.53-35.63-50.44-81.84-50.44-130.13,0-106.45,86.6-193.05,193.05-193.05,44.24,0,87.46,15.34,121.71,43.19Z"/>
              <path class="cls-2" d="M1323.11,969.4l-661.33,656.41,63.08,63.56,666.89-671.71,.33-.37c55.27-67.83,85.7-153.47,85.7-241.14,0-210.64-171.37-382.01-382.01-382.01-88.43,0-174.65,30.91-242.76,87.03l-62.33,52.71,60.59,59.53,44.97-39.28c55.01-50.04,126.3-77.59,200.72-77.59,164.55,0,298.42,133.87,298.42,298.41,0,69.8-24.61,137.7-69.13,191.01l-3.15,3.45Zm-226.14-503.01c-76.95,0-150.66,28.49-207.47,80.16l-37.82,33.03-45.95-45.15,53.76-45.47c66.3-54.62,150.21-84.7,236.28-84.7,205.05,0,371.87,166.82,371.87,371.87,0,85.26-29.57,168.54-83.27,234.54l-659.51,664.29-48.74-49.1,654.29-649.43,3.47-3.79c46.2-55.31,71.64-125.52,71.64-197.69,0-170.14-138.42-308.56-308.56-308.56Z"/>
              <path class="cls-2" d="M1454.73,1463.24c70.29,85.16,109,192.97,109,303.58,0,263.15-214.09,477.23-477.23,477.23-110.6,0-218.42-38.71-303.4-108.83l-3.59-3.26L112.97,1463.56l-63.97,63.49,660.44,652.21c103.35,95.12,237.68,147.5,378.25,147.5,308.09,0,558.74-250.65,558.74-558.74,0-129.46-45.29-255.67-127.54-355.36l-64.93-69.31-54.25,54.81,55.02,65.07Zm56.44-44c80.68,97.86,125.12,221.72,125.12,348.78,0,302.49-246.1,548.59-548.59,548.59-138.01,0-269.9-51.43-371.25-144.69L63.42,1527.03l49.51-49.14,659.57,661.4,3.96,3.59c86.98,71.78,197.08,111.31,310.04,111.31,268.74,0,487.37-218.63,487.37-487.37,0-112.96-39.53-223.07-111.35-310.09l-49.07-58.02,40.32-40.73,57.4,61.26Z"/>
              <path class="cls-2" d="M1009.55,1146.47L346,480.1l-.39-.36c-67.82-55.21-153.42-85.61-241.03-85.61-210.64,0-382.01,171.37-382.01,382.01,0,88.42,30.9,174.63,87.06,242.79l48.09,56.86,59.55-60.39-34.71-39.73c-50.04-55.02-77.59-126.31-77.59-200.72,0-164.54,133.87-298.41,298.41-298.41,69.8,0,137.7,24.61,191.01,69.13l3.53,3.24,651.94,656.81,59.69-59.24ZM305.04,541.67l-3.97-3.64c-55.31-46.2-125.52-71.64-197.7-71.64-170.14,0-308.56,138.42-308.56,308.56,0,76.95,28.49,150.65,80.16,207.47l28.45,32.57-45.14,45.78-40.88-48.34c-54.62-66.29-84.7-150.21-84.7-236.28,0-205.05,166.82-371.87,371.87-371.87,85.19,0,168.44,29.54,234.42,83.17l656.19,658.98-45.28,44.94L305.04,541.67Z"/>
              <path class="cls-2" d="M722.49,466.86l69.72-58.95c85.17-70.29,192.98-108.99,303.58-108.99,263.14,0,477.23,214.08,477.23,477.23,0,110.61-38.71,218.42-108.84,303.41l-3.09,3.42-669.13,673.98,59.42,59.87,656.86-663.64c95.1-103.35,147.48-237.68,147.48-378.23,0-308.09-250.65-558.73-558.74-558.73-129.47,0-255.67,45.29-355.59,127.75l-73.7,69.06,54.8,53.85Zm374.49-240.51c302.5,0,548.6,246.1,548.6,548.59,0,138-51.43,269.89-144.67,371.23l-649.53,656.23-45.12-45.46,662.2-667,3.4-3.76c71.78-86.97,111.31-197.08,111.31-310.04,0-268.74-218.64-487.37-487.37-487.37-112.95,0-223.06,39.53-310.09,111.35l-62.7,53.02-40.67-39.95,65.75-61.61c97.87-80.75,221.78-125.22,348.89-125.22Z"/>
              <path class="cls-2" d="M180.55,1396.48l664.51,666.37,.39,.35c67.82,55.22,153.42,85.63,241.04,85.63,210.64,0,382.01-171.37,382.01-382.01,0-88.43-30.91-174.64-87.06-242.8l-48.98-57.91-59.67,60.29,35.73,40.9c50.04,55.02,77.59,126.31,77.59,200.72,0,164.55-133.87,298.41-298.41,298.41-69.8,0-137.69-24.61-191.01-69.13l-3.53-3.23L240.72,1336.76l-60.17,59.73Zm705.49,604.82l3.97,3.64c55.32,46.2,125.52,71.65,197.69,71.65,170.14,0,308.56-138.42,308.56-308.56,0-76.95-28.49-150.66-80.16-207.47l-29.45-33.72,45.24-45.7,41.78,49.4c54.62,66.3,84.71,150.21,84.71,236.3,0,205.05-166.82,371.87-371.87,371.87-85.21,0-168.45-29.54-234.43-83.18L194.91,1396.52l45.76-45.42,645.37,650.2Z"/>
              <path class="cls-2" d="M-263.65,1079.72c-70.29-85.17-109-192.98-109-303.58,0-263.15,214.08-477.23,477.23-477.23,110.6,0,218.42,38.71,303.4,108.83l3.62,3.29,665.54,668.36,66.12-65.63L481.68,363.75c-103.35-95.15-237.7-147.54-378.3-147.54-308.09,0-558.73,250.65-558.73,558.73,0,129.47,45.29,255.67,127.54,355.36l64.21,68.54,54.2-54.97-54.25-64.15Zm-56.44,44c-80.68-97.86-125.12-221.72-125.12-348.78,0-302.49,246.1-548.59,548.59-548.59,138.05,0,269.96,51.45,371.31,144.75l654.13,642.69-51.65,51.26L418.6,403.7l-3.98-3.62c-86.98-71.78-197.09-111.31-310.04-111.31-268.74,0-487.37,218.63-487.37,487.37,0,112.95,39.53,223.06,111.35,310.09l48.3,57.12-40.28,40.86-56.67-60.49Z"/>
              <path class="cls-2" d="M590.81,2210.19l45.18,44.61,1.34,1.28c122.96,113.52,282.9,176.04,450.36,176.04,366.18,0,664.1-297.91,664.1-664.1,0-154.56-54.27-305.08-153.02-424.07l-63.72-68.09,48.66-49.17,1.33-1.39c113.52-122.97,176.03-282.91,176.03-450.36,0-366.18-297.91-664.1-664.1-664.1-154.56,0-305.08,54.27-424.07,153.02l-73.01,68.33-44.91-44.13-1.24-1.18C430.78,173.36,270.84,110.85,103.38,110.85c-366.18,0-664.1,297.91-664.1,664.1,0,154.56,54.27,305.09,153.02,424.07l63.14,67.48-49.16,49.86-1.24,1.31c-113.52,122.97-176.04,282.92-176.04,450.36,0,366.18,297.91,664.1,664.1,664.1,154.56,0,305.08-54.27,424.07-153.02l73.64-68.91Zm-1151.66-442.16c0-164.89,61.56-322.39,173.3-443.43l57.07-57.92-69.61-74.37c-97.04-116.94-150.48-265.16-150.48-417.37,0-360.59,293.36-653.95,653.95-653.95,164.9,0,322.4,61.56,443.43,173.3l52.92,51.96,79.89-74.77c116.94-97.04,265.16-150.48,417.36-150.48,360.59,0,653.96,293.36,653.96,653.95,0,164.9-61.56,322.4-173.28,443.42l-56.68,57.3,70.19,75c97.04,116.94,150.48,265.17,150.48,417.37,0,360.59-293.36,653.95-653.96,653.95-164.9,0-322.39-61.56-443.42-173.29l-53.27-52.57-80.53,75.38c-116.94,97.04-265.17,150.48-417.36,150.48-360.59,0-653.96-293.36-653.96-653.95Z"/>
              <path class="cls-2" d="M523.22,2129.18l-54.61-53.93-70.73,59.81c-85.17,70.29-192.98,108.99-303.58,108.99-263.14,0-477.23-214.08-477.23-477.23,0-110.6,38.71-218.42,108.83-303.4l3.26-3.58L401.86,788.77l-63.93-64.41L-318.12,1389.76c-95.12,103.35-147.51,237.69-147.51,378.27,0,308.09,250.65,558.74,558.74,558.74,129.47,0,255.67-45.3,355.35-127.54l74.76-70.04Zm-978.71-361.16c0-138.02,51.43-269.92,144.71-371.27L337.96,738.79l49.57,49.95L-278.17,1452.84l-3.59,3.95c-71.78,86.98-111.31,197.09-111.31,310.04,0,268.74,218.63,487.37,487.37,487.37,112.96,0,223.06-39.53,310.09-111.35l63.69-53.86,40.51,40.01-66.71,62.5c-97.85,80.69-221.71,125.12-348.78,125.12-302.49,0-548.59-246.1-548.59-548.59Z"/>
              <path class="cls-2" d="M-110.09,1768.02c0,112.04,91.16,203.2,203.2,203.2,50.82,0,99.47-18.86,136.92-53.05l42.19-36.87L-18.58,1594.13l-45.52,45.18-.36,.39c-29.43,36.09-45.64,81.66-45.64,128.32Zm91.54-159.62l275.87,272.44-33.18,28.98-.91,.81c-35.62,32.53-81.83,50.44-130.12,50.44-106.45,0-193.06-86.6-193.06-193.05,0-44.24,15.33-87.45,43.19-121.7l38.2-37.92Z"/>
              <path class="cls-2" d="M595.87,984.24l-287.57,285.43,286.41,288.55,287.57-285.43-286.41-288.55Zm-273.23,285.49l273.17-271.14,272.12,274.15-273.17,271.14-272.12-274.15Z"/>
              <path class="cls-2" d="M1087.69,1971.22c112.04,0,203.2-91.15,203.2-203.2,0-50.82-18.86-99.47-53.06-136.93l-32.2-36.84-287.18,290.14,40.53,40.83,.39,.36c36.08,29.43,81.65,45.64,128.32,45.64Zm-121.7-53.33l-33.26-33.51,272.43-275.24,24.33,27.85,.81,.9c32.53,35.63,50.44,81.84,50.44,130.13,0,106.45-86.6,193.05-193.05,193.05-44.24,0-87.45-15.34-121.7-43.19Z"/>
              <path class="cls-2" d="M-202.08,1525.78c-55.22,67.82-85.63,153.42-85.63,241.04,0,210.64,171.37,382.01,382.01,382.01,88.43,0,174.64-30.91,242.8-87.07l63.49-53.69-60.45-59.69-46.31,40.46c-55.02,50.04-126.31,77.59-200.72,77.59-164.55,0-298.42-133.87-298.42-298.41,0-69.79,24.61-137.69,69.13-191.01l3.24-3.53L528.8,916.66l-59.86-60.31L-201.73,1525.39l-.35,.39ZM514.45,916.61L-140.17,1566.37l-3.64,3.97c-46.2,55.32-71.64,125.52-71.64,197.69,0,170.14,138.42,308.56,308.56,308.56,76.95,0,150.65-28.49,207.47-80.17l39.15-34.19,45.85,45.27-54.97,46.48c-66.29,54.63-150.22,84.72-236.3,84.72-205.05,0-371.87-166.82-371.87-371.87,0-85.21,29.54-168.46,83.19-234.44L468.9,870.72l45.55,45.89Z"/>
            </g>
          </g>
        </g>
      </g>
    </g>
  </g>
</svg>