<?xml version="1.0" encoding="utf-8"?>
<!-- Generator: Adobe Illustrator 27.0.0, SVG Export Plug-In . SVG Version: 6.00 Build 0)  -->
<svg version="1.1" id="Layer_2_00000106837823030257968430000005751677324532262528_"
	 xmlns="http://www.w3.org/2000/svg" xmlns:xlink="http://www.w3.org/1999/xlink" x="0px" y="0px" viewBox="0 0 312.6 65.5"
	 style="enable-background:new 0 0 312.6 65.5;" xml:space="preserve">
<style type="text/css">
	.st0{opacity:0.52;}
	.st1{enable-background:new    ;}
	.st2{fill:#FF2A00;}
	.st3{fill:url(#SVGID_1_);}
	.st4{fill:url(#SVGID_00000150783548745705736980000014264643899907362445_);}
	.st5{fill:url(#SVGID_00000130630241931276396580000003790587369728181143_);}
	.st6{fill:url(#SVGID_00000016076563756804040290000009162968320038127783_);}
	.st7{fill:url(#SVGID_00000045614886590616362360000012890244647525043612_);}
	.st8{fill:url(#SVGID_00000121983985335842438350000017494453262224475267_);}
	.st9{fill:url(#SVGID_00000054972017376776252690000014233270153907018140_);}
	.st10{fill:url(#SVGID_00000183249650755424750480000013259145638407264415_);}
	.st11{fill:url(#SVGID_00000041997927857366324880000009219637259708962954_);}
</style>
<g id="Layer_1-2">
	<g class="st0">
		<g>
			<g class="st1">
				<path class="st2" d="M71,62.1c-1.6,0-3.1-0.2-4.3-0.6c-1.2-0.4-2.5-1-3.7-1.7l1.7-4.6c1.1,0.7,2.2,1.2,3.1,1.4
					c0.9,0.3,1.9,0.4,3.1,0.4c1.1,0,2-0.3,2.7-0.8c0.7-0.5,1-1.2,1-2.2c0-0.8-0.2-1.5-0.7-2s-1.2-0.8-2.2-1L70.4,51
					c-1.3-0.2-2.5-0.5-3.5-1.1c-1.1-0.6-1.9-1.4-2.5-2.4c-0.6-1-0.9-2.2-0.9-3.7c0-1.6,0.3-3,1-4.1c0.7-1.2,1.7-2.1,3-2.7s3-1,5-1
					c1.6,0,3,0.2,4.2,0.6c1.2,0.4,2.1,0.9,2.9,1.4l-1.6,4.3c-0.8-0.5-1.7-0.8-2.6-1c-0.9-0.2-1.8-0.3-2.7-0.3c-1.4,0-2.4,0.3-3,0.8
					c-0.6,0.5-0.9,1.1-0.9,1.7c0,0.7,0.2,1.2,0.6,1.6c0.4,0.4,1,0.6,1.7,0.7l1.4,0.2c2.4,0.3,4.2,1.1,5.5,2.5c1.3,1.4,2,3.2,2,5.5
					c0,1.8-0.4,3.3-1,4.5c-0.7,1.2-1.7,2.2-3.1,2.8S73,62.1,71,62.1z"/>
				<path class="st2" d="M92.1,62.2c-1.3,0-2.5-0.2-3.6-0.6c-1.2-0.4-2.2-1-3.1-1.9c-0.6-0.6-1-1.3-1.5-2c-0.4-0.8-0.8-1.8-1-3.2
					c-0.2-1.3-0.4-3.1-0.4-5.3c0-2.2,0.1-4,0.4-5.3c0.2-1.3,0.6-2.4,1-3.2c0.4-0.8,0.9-1.5,1.5-2c0.9-0.9,1.9-1.5,3.1-1.9
					c1.2-0.4,2.4-0.6,3.6-0.6s2.5,0.2,3.6,0.6c1.2,0.4,2.2,1,3.1,1.9c0.6,0.6,1.1,1.2,1.5,2c0.4,0.8,0.8,1.9,1,3.2
					c0.2,1.3,0.4,3.1,0.4,5.3c0,2.2-0.1,4-0.4,5.3c-0.2,1.3-0.6,2.4-1,3.2c-0.4,0.8-0.9,1.5-1.5,2c-0.9,0.9-1.9,1.5-3.1,1.9
					C94.6,62,93.4,62.2,92.1,62.2z M92.1,57.1c1,0,1.8-0.3,2.5-0.9c0.7-0.6,1-1.5,1.1-2.6c0-0.7,0.1-1.4,0.1-2.2s0.1-1.5,0.1-2.3
					c0-0.8,0-1.5-0.1-2.3s-0.1-1.5-0.1-2.2c-0.1-1.1-0.4-2-1.1-2.6c-0.7-0.6-1.5-0.9-2.5-0.9s-1.8,0.3-2.5,0.9
					c-0.7,0.6-1,1.5-1.1,2.6c0,0.7-0.1,1.4-0.1,2.2s-0.1,1.5-0.1,2.3c0,0.8,0,1.5,0.1,2.3s0.1,1.5,0.1,2.2c0.1,1.1,0.4,2,1.1,2.6
					C90.3,56.8,91.1,57.1,92.1,57.1z"/>
				<path class="st2" d="M105.9,61.7V36.4h5.8v20.3h7v5.1H105.9z"/>
				<path class="st2" d="M122,61.7V36.4h7.4c3.2,0,5.6,0.7,7.2,2.2c1.7,1.5,2.6,3.5,2.8,6.1c0,0.7,0.1,1.4,0.1,2.1
					c0,0.8,0.1,1.5,0.1,2.2c0,0.7,0,1.4-0.1,2.2c0,0.8-0.1,1.5-0.1,2.1c-0.2,2.6-1.1,4.6-2.8,6.1c-1.7,1.5-4.1,2.2-7.3,2.2H122z
					 M127.7,57h1.6c1.6,0,2.7-0.4,3.5-1.3c0.7-0.8,1.2-1.9,1.3-3.1c0.1-0.7,0.1-1.3,0.1-1.9c0-0.5,0-1.1,0-1.7c0-0.6,0-1.2,0-1.7
					c0-0.5-0.1-1.1-0.1-1.9c-0.1-1.2-0.5-2.3-1.3-3.1c-0.7-0.8-1.9-1.3-3.5-1.3h-1.6V57z"/>
				<path class="st2" d="M163.3,62.2c-1.3,0-2.5-0.2-3.6-0.6c-1.2-0.4-2.2-1-3.1-1.9c-0.6-0.6-1-1.3-1.5-2c-0.4-0.8-0.8-1.8-1-3.2
					c-0.2-1.3-0.4-3.1-0.4-5.3c0-2.2,0.1-4,0.4-5.3c0.2-1.3,0.6-2.4,1-3.2c0.4-0.8,0.9-1.5,1.5-2c0.9-0.9,1.9-1.5,3.1-1.9
					c1.2-0.4,2.4-0.6,3.6-0.6s2.5,0.2,3.6,0.6c1.2,0.4,2.2,1,3.1,1.9c0.6,0.6,1.1,1.2,1.5,2s0.8,1.9,1,3.2c0.2,1.3,0.4,3.1,0.4,5.3
					c0,2.2-0.1,4-0.4,5.3c-0.2,1.3-0.6,2.4-1,3.2c-0.4,0.8-0.9,1.5-1.5,2c-0.9,0.9-1.9,1.5-3.1,1.9C165.7,62,164.5,62.2,163.3,62.2z
					 M163.3,57.1c1,0,1.8-0.3,2.5-0.9c0.7-0.6,1-1.5,1.1-2.6c0-0.7,0.1-1.4,0.1-2.2c0-0.7,0.1-1.5,0.1-2.3c0-0.8,0-1.5-0.1-2.3
					c0-0.8-0.1-1.5-0.1-2.2c-0.1-1.1-0.4-2-1.1-2.6c-0.7-0.6-1.5-0.9-2.5-0.9c-1,0-1.8,0.3-2.5,0.9s-1,1.5-1.1,2.6
					c0,0.7-0.1,1.4-0.1,2.2c0,0.8-0.1,1.5-0.1,2.3c0,0.8,0,1.5,0.1,2.3c0,0.7,0.1,1.5,0.1,2.2c0.1,1.1,0.4,2,1.1,2.6
					S162.2,57.1,163.3,57.1z"/>
				<path class="st2" d="M185.4,62.1c-1.7,0-3.2-0.3-4.6-1s-2.4-1.6-3.1-2.9s-1.1-2.7-1.1-4.3V36.4h5.8V54c0,0.9,0.3,1.6,0.8,2.2
					c0.5,0.5,1.3,0.8,2.2,0.8c0.8,0,1.5-0.3,2.1-0.8c0.6-0.5,0.8-1.3,0.8-2.2V36.4h5.8L194,53.9c0,1.6-0.4,3-1.1,4.3s-1.7,2.2-3,2.9
					S187.1,62.1,185.4,62.1z"/>
				<path class="st2" d="M202.6,61.7V41.5H197v-5.1h17v5.1h-5.6v20.3H202.6z"/>
				<path class="st2" d="M218.2,53.4l-1.3-17h6.9l-1.3,17H218.2z M217.6,61.7v-5.2h5.7v5.2H217.6z"/>
				<path class="st2" d="M229.5,53.4l-1.3-17h6.9l-1.3,17H229.5z M228.8,61.7v-5.2h5.7v5.2H228.8z"/>
				<path class="st2" d="M240.7,53.4l-1.3-17h6.9l-1.3,17H240.7z M240.1,61.7v-5.2h5.7v5.2H240.1z"/>
			</g>
		</g>
	</g>
	<g>
		
			<linearGradient id="SVGID_1_" gradientUnits="userSpaceOnUse" x1="45.0383" y1="1039.4987" x2="497.9683" y2="901.7087" gradientTransform="matrix(1 0 0 1 0 -1012)">
			<stop  offset="0" style="stop-color:#FEF3F0"/>
			<stop  offset="0.47" style="stop-color:#D37765"/>
			<stop  offset="1" style="stop-color:#86270D"/>
		</linearGradient>
		<path class="st3" d="M66.9,32.6v-1.3l3.8-1.2V7l-3.8-0.5V4.9h12.9c2.4,0,4.4,0.6,5.8,1.8s2.1,2.6,2.1,4.4c0,1.5-0.5,2.8-1.5,4
			s-2.3,2.1-4.1,2.6c2.2,0.3,3.9,1.1,5.1,2.4s1.9,2.8,1.9,4.5c0,2.2-1,4-2.9,5.6s-4.5,2.3-7.8,2.3L66.9,32.6L66.9,32.6z M74.4,17
			h3.2c1.8,0,3.3-0.6,4.5-1.6s1.7-2.4,1.7-3.8c0-1.3-0.5-2.5-1.5-3.3c-1-0.9-2.4-1.3-4.2-1.3h-3.8L74.4,17L74.4,17z M74.4,30.6h3.5
			c2.2,0,3.9-0.6,5.2-1.7s1.9-2.5,1.9-4.2s-0.6-2.9-1.8-4s-2.9-1.7-5-1.7h-3.9L74.4,30.6L74.4,30.6z"/>
		
			<linearGradient id="SVGID_00000026868551060067654780000010107686429502054058_" gradientUnits="userSpaceOnUse" x1="48.7533" y1="1051.7323" x2="501.6933" y2="913.9523" gradientTransform="matrix(1 0 0 1 0 -1012)">
			<stop  offset="0" style="stop-color:#FEF3F0"/>
			<stop  offset="0.47" style="stop-color:#D37765"/>
			<stop  offset="1" style="stop-color:#86270D"/>
		</linearGradient>
		<path style="fill:url(#SVGID_00000026868551060067654780000010107686429502054058_);" d="M104.3,29l-3.8,3.5
			c-0.8,0.4-1.7,0.5-2.8,0.5c-1.5,0-2.8-0.5-3.8-1.5s-1.5-2.2-1.5-3.7c0-1.3,0.4-2.4,1.3-3.3s2.1-1.6,3.7-1.9l6.1-1.3v-1.7
			c0-3.1-1.2-4.6-3.5-4.6c-1.2,0-2.1,0.4-2.7,1.2s-1,1.9-1,3.2v0.8H95l-1.8-4c2.1-1.9,4.6-2.9,7.4-2.9c1.8,0,3.3,0.5,4.5,1.4
			s1.7,2.3,1.7,4v9.8c0,1.5,0.4,2.2,1.3,2.2c0.8,0,1.4-0.4,1.9-1.1l0.4,1.1c-0.5,1.5-1.6,2.2-3.1,2.2C105.4,33,104.4,31.7,104.3,29
			L104.3,29z M103.7,27.7V23l-4.3,1c-1.2,0.2-2,0.7-2.7,1.3c-0.6,0.6-0.9,1.4-0.9,2.2s0.3,1.5,0.8,2s1.2,0.8,2,0.8
			C100.1,30.4,101.7,29.5,103.7,27.7z"/>
		
			<linearGradient id="SVGID_00000178922199177438967760000008007999279016105089_" gradientUnits="userSpaceOnUse" x1="48.8164" y1="1051.9283" x2="501.7464" y2="914.1483" gradientTransform="matrix(1 0 0 1 0 -1012)">
			<stop  offset="0" style="stop-color:#FEF3F0"/>
			<stop  offset="0.47" style="stop-color:#D37765"/>
			<stop  offset="1" style="stop-color:#86270D"/>
		</linearGradient>
		<path style="fill:url(#SVGID_00000178922199177438967760000008007999279016105089_);" d="M111.4,32.6v-1.4l3.2-1.1V8.4l-3-1.4V6.2
			l6.2-1.7v26.1l3.2,0.5v1.5H111.4L111.4,32.6z"/>
		
			<linearGradient id="SVGID_00000124155971959318246000000008926382302297954747_" gradientUnits="userSpaceOnUse" x1="49.7706" y1="1055.062" x2="502.7006" y2="917.272" gradientTransform="matrix(1 0 0 1 0 -1012)">
			<stop  offset="0" style="stop-color:#FEF3F0"/>
			<stop  offset="0.47" style="stop-color:#D37765"/>
			<stop  offset="1" style="stop-color:#86270D"/>
		</linearGradient>
		<path style="fill:url(#SVGID_00000124155971959318246000000008926382302297954747_);" d="M122.6,32.6v-1.4l3.2-1.1V8.4l-3-1.4V6.2
			l6.3-1.7v26.1l3.2,0.5v1.5H122.6L122.6,32.6z"/>
		
			<linearGradient id="SVGID_00000012443982286353524540000006421448047500852660_" gradientUnits="userSpaceOnUse" x1="52.2886" y1="1063.3442" x2="505.2186" y2="925.5543" gradientTransform="matrix(1 0 0 1 0 -1012)">
			<stop  offset="0" style="stop-color:#FEF3F0"/>
			<stop  offset="0.47" style="stop-color:#D37765"/>
			<stop  offset="1" style="stop-color:#86270D"/>
		</linearGradient>
		<path style="fill:url(#SVGID_00000012443982286353524540000006421448047500852660_);" d="M146.2,29l-3.8,3.5
			c-0.8,0.4-1.7,0.5-2.8,0.5c-1.5,0-2.8-0.5-3.8-1.5s-1.5-2.2-1.5-3.7c0-1.3,0.4-2.4,1.3-3.3s2.1-1.6,3.7-1.9l6.1-1.3v-1.7
			c0-3.1-1.2-4.6-3.5-4.6c-1.2,0-2.1,0.4-2.7,1.2c-0.7,0.8-1,1.9-1,3.2v0.8h-1.5l-1.8-4c2.1-1.9,4.6-2.9,7.4-2.9
			c1.8,0,3.3,0.5,4.5,1.4c1.1,0.9,1.7,2.3,1.7,4v9.8c0,1.5,0.4,2.2,1.3,2.2c0.8,0,1.4-0.4,1.9-1.1l0.4,1.1c-0.5,1.5-1.6,2.2-3.1,2.2
			C147.2,33,146.2,31.7,146.2,29L146.2,29z M145.5,27.7V23l-4.3,1c-1.2,0.2-2,0.7-2.6,1.3c-0.6,0.6-0.9,1.4-0.9,2.2s0.3,1.5,0.8,2
			s1.2,0.8,2,0.8C141.9,30.4,143.6,29.5,145.5,27.7z"/>
		
			<linearGradient id="SVGID_00000170263270873006942240000000656625028200079776_" gradientUnits="userSpaceOnUse" x1="53.7346" y1="1068.0884" x2="506.6647" y2="930.3083" gradientTransform="matrix(1 0 0 1 0 -1012)">
			<stop  offset="0" style="stop-color:#FEF3F0"/>
			<stop  offset="0.47" style="stop-color:#D37765"/>
			<stop  offset="1" style="stop-color:#86270D"/>
		</linearGradient>
		<path style="fill:url(#SVGID_00000170263270873006942240000000656625028200079776_);" d="M157.8,15.4l-2.4,4.9H154l0.4-6.6h14.7
			l0.2,1.5L158,30.7h7.4l3.6-4.9h1.3l-1,6.9h-15.1l-0.2-1.4l11.2-15.8L157.8,15.4L157.8,15.4z"/>
		
			<linearGradient id="SVGID_00000128464419302024608290000008708635616123459261_" gradientUnits="userSpaceOnUse" x1="56.321" y1="1076.592" x2="509.251" y2="938.8121" gradientTransform="matrix(1 0 0 1 0 -1012)">
			<stop  offset="0" style="stop-color:#FEF3F0"/>
			<stop  offset="0.47" style="stop-color:#D37765"/>
			<stop  offset="1" style="stop-color:#86270D"/>
		</linearGradient>
		<path style="fill:url(#SVGID_00000128464419302024608290000008708635616123459261_);" d="M198.8,26.6l0.8,1.1
			c-0.8,1.7-1.9,3-3.2,4s-2.9,1.4-4.6,1.4c-2.4,0-4.4-0.9-6.1-2.6c-1.7-1.8-2.5-4.1-2.5-7s0.9-5.4,2.7-7.2c1.8-1.9,3.9-2.8,6.5-2.8
			c2.2,0,4,0.7,5.2,2.2s1.9,3.5,1.9,6.2c0,0.5,0,0.8,0,1h-13.2c0.1,2.2,0.8,3.9,2,5.3c1.3,1.3,2.8,2,4.6,2
			C195.4,30,197.4,28.9,198.8,26.6L198.8,26.6z M186.4,20.9h9.8c0-1.8-0.4-3.2-1.2-4.2c-0.8-0.9-1.9-1.4-3.2-1.4s-2.6,0.5-3.5,1.6
			C187.3,17.9,186.7,19.2,186.4,20.9L186.4,20.9z"/>
		
			<linearGradient id="SVGID_00000088091342970798663520000014743782493611497382_" gradientUnits="userSpaceOnUse" x1="58.2372" y1="1082.9111" x2="511.1772" y2="945.1212" gradientTransform="matrix(1 0 0 1 0 -1012)">
			<stop  offset="0" style="stop-color:#FEF3F0"/>
			<stop  offset="0.47" style="stop-color:#D37765"/>
			<stop  offset="1" style="stop-color:#86270D"/>
		</linearGradient>
		<path style="fill:url(#SVGID_00000088091342970798663520000014743782493611497382_);" d="M202,32.6v-1.4l3.2-1.1V17.3l-3.1-1.5V15
			l6.1-1.7v4l3.9-3.6c1-0.2,1.9-0.4,2.7-0.4c1.9,0,3.4,0.6,4.5,1.8s1.6,2.9,1.6,5.1v10.4l3.2,0.5v1.5h-9.6v-1.4l3.2-1.1v-9.4
			c0-1.5-0.4-2.6-1.1-3.3s-1.6-1.1-2.8-1.1c-1.9,0-3.7,0.9-5.4,2.6v11.6l3.2,0.5v1.5L202,32.6L202,32.6z"/>
		
			<linearGradient id="SVGID_00000024687902459675611940000012287719914533887668_" gradientUnits="userSpaceOnUse" x1="59.2193" y1="1086.1207" x2="512.1493" y2="948.3307" gradientTransform="matrix(1 0 0 1 0 -1012)">
			<stop  offset="0" style="stop-color:#FEF3F0"/>
			<stop  offset="0.47" style="stop-color:#D37765"/>
			<stop  offset="1" style="stop-color:#86270D"/>
		</linearGradient>
		<path style="fill:url(#SVGID_00000024687902459675611940000012287719914533887668_);" d="M235.9,13.4c1.1,0,2.2,0.2,3.4,0.5V8.4
			l-3-1.4V6.2l6.2-1.7v25.1l3,0.5v1.4l-5.9,1.6v-3.6l-4.4,3.4c-0.7,0.1-1.3,0.2-1.7,0.2c-2.1,0-3.8-0.8-5.3-2.4s-2.2-3.8-2.2-6.5
			c0-3.1,0.9-5.6,2.8-7.7S233,13.4,235.9,13.4L235.9,13.4z M239.4,27.4V17.2c-1.2-1.2-2.6-1.7-4.4-1.7s-3.2,0.7-4.3,2.2
			s-1.6,3.2-1.6,5.2s0.5,3.5,1.5,4.9s2.2,2.1,3.8,2.1c0.9,0,1.8-0.2,2.8-0.7C238.1,28.7,238.8,28.1,239.4,27.4L239.4,27.4z"/>
	</g>
</g>
</svg>
