<?xml version="1.0" encoding="utf-8"?>
<!-- Generator: Adobe Illustrator 27.0.0, SVG Export Plug-In . SVG Version: 6.00 Build 0)  -->
<svg version="1.1" id="Layer_2_00000139974788423133344950000015754121792135076994_"
	 xmlns="http://www.w3.org/2000/svg" xmlns:xlink="http://www.w3.org/1999/xlink" x="0px" y="0px" viewBox="0 0 687.3 69.8"
	 style="enable-background:new 0 0 687.3 69.8;" xml:space="preserve">
<style type="text/css">
	.st0{opacity:0.52;}
	.st1{fill:url(#SVGID_1_);}
	.st2{fill:url(#SVGID_00000111901656650593210200000003700515885350587290_);}
	.st3{fill:url(#SVGID_00000096024503691281293470000003782245668276391083_);}
	.st4{fill:url(#SVGID_00000145754096042479373600000003911555663734828434_);}
	.st5{fill:url(#SVGID_00000107573016447173058270000009427312128954295443_);}
	.st6{fill:url(#SVGID_00000159464162967903172930000013858151672307996823_);}
	.st7{fill:url(#SVGID_00000102508440351480427430000003096986815354383281_);}
	.st8{fill:url(#SVGID_00000134958276545013966830000006040391408357954460_);}
	.st9{fill:url(#SVGID_00000018230513570014000400000011140833468203106994_);}
	.st10{fill:url(#SVGID_00000139260014152914735270000011373938984900025007_);}
	.st11{fill:url(#SVGID_00000116204058986768105850000007000227233844511879_);}
	.st12{fill:url(#SVGID_00000067945028242259251760000010648525992003130529_);}
	.st13{fill:url(#SVGID_00000175284569317611672360000000223310603723456902_);}
	.st14{fill:url(#SVGID_00000026121438824665051230000001443205201050347158_);}
	.st15{fill:url(#SVGID_00000151516364970122969340000011074973694876680370_);}
	.st16{fill:url(#SVGID_00000080884828150619061930000007059212651379899064_);}
	.st17{fill:url(#SVGID_00000091699498983034024500000017365760042714501528_);}
	.st18{fill:url(#SVGID_00000031905993628478917430000005242654395727094715_);}
	.st19{fill:url(#SVGID_00000127038456207261243770000002163759252176112828_);}
	.st20{fill:url(#SVGID_00000021831987645535649760000011956062281061921714_);}
	.st21{fill:url(#SVGID_00000026851059473844205820000016119058724244499613_);}
	.st22{fill:url(#SVGID_00000078023110515901522010000008059858347070920629_);}
	.st23{fill:url(#SVGID_00000109739556310197773460000007212587725616399499_);}
	.st24{fill:url(#SVGID_00000175301290321989544890000001303135873292857531_);}
	.st25{fill:url(#SVGID_00000119088599665545730720000009948266272152167565_);}
	.st26{fill:url(#SVGID_00000134228565708612823560000001651955098963089075_);}
</style>
<g id="Layer_1-2">
	<g class="st0">
		
			<text transform="matrix(1 0 0 1 602.4579 334.9771)" style="fill:#FBD2C7; font-family:'OpenSans-Regular'; font-size:35.3638px;">Reservations - 200,000 Ugx Comes with sits </text>
		
			<text transform="matrix(1 0 0 1 672.0321 386.8218)" style="fill:#FBD2C7; font-family:'OpenSans-Regular'; font-size:35.3638px;">Booth  - 100,000 Ugx Cocktail table </text>
		
			<text transform="matrix(1 0 0 1 844.3534 438.6665)" style="fill:#FBD2C7; font-family:'OpenSans-Regular'; font-size:35.3638px;">without sitting</text>
	</g>
	<g>
		
			<linearGradient id="SVGID_1_" gradientUnits="userSpaceOnUse" x1="568.7667" y1="-13.5647" x2="1926.7864" y2="288.4163" gradientTransform="matrix(1 0 0 -1 0 196.917)">
			<stop  offset="0" style="stop-color:#FEF3F0"/>
			<stop  offset="0.47" style="stop-color:#D37765"/>
			<stop  offset="1" style="stop-color:#86270D"/>
		</linearGradient>
		<path class="st1" d="M649.2,182.2c0-4.7-1.5-8.3-4.4-10.9c-2.8-2.6-6.4-3.9-10.5-3.9c-5.7,0-10.7,2.3-15,6.8
			c-4.3,4.5-6.4,10.7-6.4,18.5s2.1,14.6,6.3,20.2c4.2,5.6,9.8,8.4,16.8,8.4c4.7,0,9-1.3,13-4c3.9-2.7,7.1-6.6,9.5-11.6l2.5,3.2
			c-1.9,6.8-5.3,12.1-10.1,15.8c-4.7,3.5-10.1,5.3-16.1,5.3c-3.8,0.1-7.5-0.7-11.1-2.2c-3.6-1.6-6.9-3.7-9.7-6.5s-5.1-6.3-6.8-10.7
			c-1.7-4.3-2.5-9-2.4-14.1c-0.1-10.2,2.9-18.6,9.1-25.2c6.2-6.6,13.7-9.8,22.6-9.7c7.9,0,15.4,2.6,22.6,7.9l-6.4,16.2h-3.6
			C649.1,184.4,649.2,183.3,649.2,182.2z"/>
		
			<linearGradient id="SVGID_00000101786208063917997410000003514526799986183096_" gradientUnits="userSpaceOnUse" x1="571.7765" y1="-27.1084" x2="1929.7963" y2="274.8725" gradientTransform="matrix(1 0 0 -1 0 196.917)">
			<stop  offset="0" style="stop-color:#FEF3F0"/>
			<stop  offset="0.47" style="stop-color:#D37765"/>
			<stop  offset="1" style="stop-color:#86270D"/>
		</linearGradient>
		<path style="fill:url(#SVGID_00000101786208063917997410000003514526799986183096_);" d="M668,228.2V225l7.5-2.5v-51.2l-7.1-3.2
			v-2l14.7-4v29.6l8.6-7.9c2.2-0.6,4.3-0.8,6.3-0.8c4.5,0,8,1.4,10.6,4.3c2.6,2.9,3.9,6.9,3.9,11.9v24.5l7.5,1.1v3.5h-22.6V225
			l7.5-2.5v-22.1c0-3.4-0.8-6-2.5-7.8c-1.7-1.8-3.9-2.7-6.6-2.7c-4.5,0-8.8,2.1-12.8,6.2v27.4l7.5,1.1v3.5L668,228.2L668,228.2z"/>
		
			<linearGradient id="SVGID_00000068668274603068857450000003866383457625745594_" gradientUnits="userSpaceOnUse" x1="576.415" y1="-47.9231" x2="1934.4347" y2="254.0579" gradientTransform="matrix(1 0 0 -1 0 196.917)">
			<stop  offset="0" style="stop-color:#FEF3F0"/>
			<stop  offset="0.47" style="stop-color:#D37765"/>
			<stop  offset="1" style="stop-color:#86270D"/>
		</linearGradient>
		<path style="fill:url(#SVGID_00000068668274603068857450000003866383457625745594_);" d="M752.5,219.8l-8.9,8.2
			c-1.9,0.9-4.1,1.3-6.6,1.3c-3.6,0-6.5-1.2-8.9-3.6c-2.3-2.4-3.4-5.3-3.4-8.7c0-3,1-5.6,3-7.8s4.9-3.7,8.8-4.5l14.3-3v-4.1
			c0-7.2-2.8-10.8-8.3-10.8c-2.7,0-4.9,1-6.4,2.9c-1.6,2-2.3,4.4-2.3,7.5l0.1,1.8h-3.5l-4.2-9.4c5-4.5,10.9-6.7,17.5-6.7
			c4.3,0,7.9,1.1,10.6,3.3c2.7,2.2,4,5.4,4,9.4v23.2c0,3.5,1,5.2,3.1,5.2c1.8,0,3.3-0.9,4.6-2.7l0.9,2.7c-1.2,3.5-3.7,5.2-7.3,5.2
			C754.9,229.2,752.5,226.1,752.5,219.8L752.5,219.8z M750.9,216.7v-11l-10.1,2.3c-2.7,0.6-4.8,1.6-6.2,3.1
			c-1.4,1.5-2.1,3.2-2.1,5.2c0,1.9,0.6,3.4,1.8,4.7c1.2,1.3,2.8,1.9,4.8,1.9C742.4,223,746.4,220.9,750.9,216.7z"/>
		
			<linearGradient id="SVGID_00000097502846556325547780000014926916316193567143_" gradientUnits="userSpaceOnUse" x1="579.3096" y1="-61.0312" x2="1937.3529" y2="240.9498" gradientTransform="matrix(1 0 0 -1 0 196.917)">
			<stop  offset="0" style="stop-color:#FEF3F0"/>
			<stop  offset="0.47" style="stop-color:#D37765"/>
			<stop  offset="1" style="stop-color:#86270D"/>
		</linearGradient>
		<path style="fill:url(#SVGID_00000097502846556325547780000014926916316193567143_);" d="M769.2,228.2V225l7.5-2.5v-30.3l-7.3-3.4
			v-1.9l14.2-3.9v9.6l9.2-8.8c2.2-0.6,4-0.8,5.5-0.8c3,0,5.7,0.8,7.8,2.4c2.2,1.6,3.6,3.9,4.4,6.9l9.2-8.5c1.8-0.6,3.7-0.8,5.8-0.8
			c4.3,0,7.6,1.4,9.8,4.2s3.2,6.7,3.2,11.6v24.8l7.5,1.1v3.5h-22.2v-3.3l7.1-2.4v-21.7c0-3.3-0.8-6-2.3-7.9c-1.5-1.9-3.5-2.9-6-2.9
			c-3.7,0-7.4,2.1-11.3,6.2v27.4l7.1,1.1v3.5h-21.7v-3.3l7.1-2.4v-21.7c0-3.3-0.8-6-2.2-7.9c-1.5-1.9-3.5-2.9-6-2.9
			c-3.9,0-7.7,2.1-11.3,6.2v27.4l7.1,1.1v3.5L769.2,228.2L769.2,228.2z"/>
		
			<linearGradient id="SVGID_00000115507515371445521050000015076197170261688204_" gradientUnits="userSpaceOnUse" x1="584.1169" y1="-82.5697" x2="1942.1366" y2="219.4113" gradientTransform="matrix(1 0 0 -1 0 196.917)">
			<stop  offset="0" style="stop-color:#FEF3F0"/>
			<stop  offset="0.47" style="stop-color:#D37765"/>
			<stop  offset="1" style="stop-color:#86270D"/>
		</linearGradient>
		<path style="fill:url(#SVGID_00000115507515371445521050000015076197170261688204_);" d="M848.9,249.7v-3.2l7.5-2.5v-51.8
			l-7.3-3.4v-1.9l14.2-3.9v8.5l10.3-7.9c1.2-0.4,2.4-0.6,3.8-0.6c5.7,0,10.2,2,13.6,6.1c3.4,4.1,5.1,9.3,5.1,15.4
			c0.1,7-2.1,12.8-6.8,17.4c-4.6,4.6-9.8,6.8-15.6,6.7c-4.1,0-7.4-0.8-9.9-2.3v18.6l9.3,1.5v3.2L848.9,249.7L848.9,249.7z
			 M884.2,219.3c2.4-3,3.7-7.2,3.7-12.5s-1.2-9.4-3.6-12.4c-2.4-3-5.4-4.5-9-4.5c-4.2,0-7.9,1.9-11.3,5.8v21.9
			c2.4,4.2,6,6.2,10.7,6.2C878.6,223.8,881.8,222.3,884.2,219.3L884.2,219.3z"/>
		
			<linearGradient id="SVGID_00000125602260324237452360000008341891883793265301_" gradientUnits="userSpaceOnUse" x1="584.7988" y1="-85.6267" x2="1942.8186" y2="216.3307" gradientTransform="matrix(1 0 0 -1 0 196.917)">
			<stop  offset="0" style="stop-color:#FEF3F0"/>
			<stop  offset="0.47" style="stop-color:#D37765"/>
			<stop  offset="1" style="stop-color:#86270D"/>
		</linearGradient>
		<path style="fill:url(#SVGID_00000125602260324237452360000008341891883793265301_);" d="M930.5,219.8l-8.9,8.2
			c-1.9,0.9-4.1,1.3-6.6,1.3c-3.6,0-6.5-1.2-8.8-3.6c-2.3-2.4-3.4-5.3-3.4-8.7c0-3,1-5.6,3-7.8s4.9-3.7,8.8-4.5l14.3-3v-4.1
			c0-7.2-2.8-10.8-8.3-10.8c-2.7,0-4.9,1-6.4,2.9c-1.6,2-2.3,4.4-2.3,7.5l0.1,1.8h-3.5l-4.2-9.4c5-4.5,10.9-6.7,17.5-6.7
			c4.3,0,7.9,1.1,10.6,3.3c2.7,2.2,4,5.4,4,9.4v23.2c0,3.5,1,5.2,3.1,5.2c1.8,0,3.3-0.9,4.6-2.7l0.9,2.7c-1.2,3.5-3.6,5.2-7.3,5.2
			C932.8,229.2,930.5,226.1,930.5,219.8L930.5,219.8z M928.9,216.7v-11l-10.1,2.3c-2.7,0.6-4.8,1.6-6.2,3.1
			c-1.4,1.5-2.1,3.2-2.1,5.2c0,1.9,0.6,3.4,1.8,4.7c1.2,1.3,2.8,1.9,4.8,1.9C920.4,223,924.4,220.9,928.9,216.7z"/>
		
			<linearGradient id="SVGID_00000036219884666792969540000011983798132868357796_" gradientUnits="userSpaceOnUse" x1="589.0116" y1="-104.5958" x2="1947.0314" y2="197.3852" gradientTransform="matrix(1 0 0 -1 0 196.917)">
			<stop  offset="0" style="stop-color:#FEF3F0"/>
			<stop  offset="0.47" style="stop-color:#D37765"/>
			<stop  offset="1" style="stop-color:#86270D"/>
		</linearGradient>
		<path style="fill:url(#SVGID_00000036219884666792969540000011983798132868357796_);" d="M995.1,183.8v5.8l-13.9-1
			c2.2,1.7,3.9,3.4,5.1,5.2c1.2,1.8,1.8,4.1,1.8,6.8c0,4.5-1.8,8.2-5.5,11c-3.7,2.8-7.9,4.2-12.6,4.2c-3.3,0-6.4-0.7-9.1-2.1
			c-2.2,1.1-3.2,2.8-3.2,5.1c0,1.6,0.6,2.8,1.7,3.8c1.2,1,2.8,1.5,4.9,1.5h17.5c3.8,0,6.8,0.9,9,2.7c2.2,1.8,3.3,4.3,3.3,7.5
			c0,5-2.6,9-7.8,12c-5.2,3-11.2,4.6-18.1,4.6c-5.6,0-10.3-1-14.2-3.1c-3.9-2-5.9-4.9-5.9-8.7c0-1.1,0.2-2.1,0.7-3.1l9.4-5.8
			c-2.1-0.9-3.7-2.3-4.9-4c-1.2-1.7-1.8-3.6-1.8-5.6c0-1.9,0.6-3.6,1.8-5.2c1.2-1.6,2.8-2.8,4.9-3.6c-4-3.2-6.1-7.5-6.1-12.8
			c0-4.6,1.7-8.4,5-11.5c3.3-3.1,7.5-4.6,12.6-4.6c1.7,0,3.9,0.3,6.6,0.8L995.1,183.8L995.1,183.8z M956.3,238.5
			c0,2.4,1.3,4.3,3.8,5.6c2.5,1.3,5.8,2,9.9,2c4.9,0,8.9-1,12-3c3.1-2,4.7-4.3,4.7-6.8c0-1.6-0.7-2.8-2-3.8c-1.4-1-3.2-1.5-5.6-1.5
			h-16C958.6,232.7,956.3,235.2,956.3,238.5L956.3,238.5z M980.4,199.9c0-3.6-1-6.7-2.9-9c-1.9-2.3-4.5-3.5-7.7-3.5
			c-3,0-5.4,1.1-7.2,3.2c-1.8,2.1-2.7,4.9-2.7,8.2c0,3.6,1,6.5,2.9,8.8c2,2.3,4.6,3.4,7.9,3.4c3.1,0,5.5-1,7.2-3
			S980.4,203.3,980.4,199.9L980.4,199.9z"/>
		
			<linearGradient id="SVGID_00000022526665625732813520000001420722362489426873_" gradientUnits="userSpaceOnUse" x1="589.4593" y1="-106.6695" x2="1947.5027" y2="195.3115" gradientTransform="matrix(1 0 0 -1 0 196.917)">
			<stop  offset="0" style="stop-color:#FEF3F0"/>
			<stop  offset="0.47" style="stop-color:#D37765"/>
			<stop  offset="1" style="stop-color:#86270D"/>
		</linearGradient>
		<path style="fill:url(#SVGID_00000022526665625732813520000001420722362489426873_);" d="M997,228.2V225l7.5-2.5v-30.3l-7.3-3.4
			v-1.9l14.2-3.9v9.4l9.2-8.6c2.4-0.6,4.5-0.8,6.3-0.8c4.5,0,8.1,1.4,10.7,4.2c2.6,2.8,3.9,6.8,3.9,12v24.5l7.5,1.1v3.5h-22.6V225
			l7.5-2.5v-22.1c0-3.4-0.8-6-2.5-7.8s-3.9-2.7-6.6-2.7c-4.5,0-8.8,2.1-12.8,6.2v27.4l7.5,1.1v3.5L997,228.2L997,228.2z"/>
		
			<linearGradient id="SVGID_00000079450236552515616280000017816632013044943773_" gradientUnits="userSpaceOnUse" x1="591.6499" y1="-116.4918" x2="1949.6932" y2="185.4656" gradientTransform="matrix(1 0 0 -1 0 196.917)">
			<stop  offset="0" style="stop-color:#FEF3F0"/>
			<stop  offset="0.47" style="stop-color:#D37765"/>
			<stop  offset="1" style="stop-color:#86270D"/>
		</linearGradient>
		<path style="fill:url(#SVGID_00000079450236552515616280000017816632013044943773_);" d="M1090.3,214l2,2.6
			c-1.8,4-4.3,7.2-7.6,9.3c-3.3,2.2-6.9,3.3-10.7,3.3c-5.5,0-10.3-2.1-14.2-6.2c-4-4.1-6-9.7-6-16.5c0-6.8,2.1-12.7,6.3-17.1
			c4.2-4.4,9.3-6.6,15.2-6.6c5.2,0,9.3,1.7,12.3,5.2c3,3.5,4.5,8.3,4.5,14.6c0,1.2,0,2-0.1,2.4h-31.1c0.2,5.2,1.8,9.3,4.8,12.4
			s6.5,4.7,10.7,4.7C1082.2,222.2,1086.9,219.5,1090.3,214L1090.3,214z M1061.1,200.6h23.1c0-4.3-0.9-7.6-2.8-9.9s-4.4-3.3-7.5-3.3
			c-3.2,0-6,1.2-8.3,3.7C1063.2,193.6,1061.7,196.8,1061.1,200.6L1061.1,200.6z"/>
		
			<linearGradient id="SVGID_00000120527991703569407730000014732482209540899262_" gradientUnits="userSpaceOnUse" x1="593.2083" y1="-123.4576" x2="1951.228" y2="178.4999" gradientTransform="matrix(1 0 0 -1 0 196.917)">
			<stop  offset="0" style="stop-color:#FEF3F0"/>
			<stop  offset="0.47" style="stop-color:#D37765"/>
			<stop  offset="1" style="stop-color:#86270D"/>
		</linearGradient>
		<path style="fill:url(#SVGID_00000120527991703569407730000014732482209540899262_);" d="M1167.9,182.2c0-4.7-1.5-8.3-4.4-10.9
			c-2.8-2.6-6.4-3.9-10.5-3.9c-5.7,0-10.7,2.3-15,6.8c-4.3,4.5-6.4,10.7-6.4,18.5s2.1,14.6,6.3,20.2c4.2,5.6,9.8,8.4,16.8,8.4
			c4.7,0,9-1.3,13-4c3.9-2.7,7.1-6.6,9.5-11.6l2.5,3.2c-1.9,6.8-5.3,12.1-10.1,15.8c-4.7,3.5-10.1,5.3-16.1,5.3
			c-3.8,0.1-7.5-0.7-11.1-2.2c-3.6-1.6-6.9-3.7-9.7-6.5s-5.1-6.3-6.8-10.7c-1.7-4.3-2.5-9-2.4-14.1c-0.1-10.2,2.9-18.6,9.1-25.2
			c6.2-6.6,13.7-9.8,22.5-9.7c7.9,0,15.4,2.6,22.6,7.9l-6.4,16.2h-3.6C1167.8,184.4,1167.9,183.3,1167.9,182.2L1167.9,182.2z"/>
		
			<linearGradient id="SVGID_00000030470466401027789800000012444039784167343293_" gradientUnits="userSpaceOnUse" x1="595.489" y1="-133.7796" x2="1953.5323" y2="168.2014" gradientTransform="matrix(1 0 0 -1 0 196.917)">
			<stop  offset="0" style="stop-color:#FEF3F0"/>
			<stop  offset="0.47" style="stop-color:#D37765"/>
			<stop  offset="1" style="stop-color:#86270D"/>
		</linearGradient>
		<path style="fill:url(#SVGID_00000030470466401027789800000012444039784167343293_);" d="M1186.2,228.2V225l7.5-2.5v-51.2
			l-7.2-3.3v-1.9l14.7-4v61.5l7.5,1.1v3.5H1186.2L1186.2,228.2z"/>
		
			<linearGradient id="SVGID_00000162337124737257948130000008858448801866219912_" gradientUnits="userSpaceOnUse" x1="599.1394" y1="-150.1238" x2="1957.1592" y2="151.8336" gradientTransform="matrix(1 0 0 -1 0 196.917)">
			<stop  offset="0" style="stop-color:#FEF3F0"/>
			<stop  offset="0.47" style="stop-color:#D37765"/>
			<stop  offset="1" style="stop-color:#86270D"/>
		</linearGradient>
		<path style="fill:url(#SVGID_00000162337124737257948130000008858448801866219912_);" d="M1255.3,183.8v38.1l7.1,1.8v3l-13.3,2.7
			v-9.8l-9.6,8.8c-1.7,0.6-3.5,0.9-5.6,0.9c-4.7,0-8.3-1.5-10.7-4.4s-3.6-7-3.6-12.3v-23.3l-7.5-2.1v-3.4h15.1v27.9
			c0,3.4,0.8,6,2.3,7.8c1.5,1.8,3.6,2.7,6.1,2.7c4,0,8.1-2,12.2-6.1v-26.6l-7.5-2.1v-3.4H1255.3L1255.3,183.8z"/>
		
			<linearGradient id="SVGID_00000084501673307215107910000000998095652953696670_" gradientUnits="userSpaceOnUse" x1="599.327" y1="-150.9919" x2="1957.3469" y2="150.9891" gradientTransform="matrix(1 0 0 -1 0 196.917)">
			<stop  offset="0" style="stop-color:#FEF3F0"/>
			<stop  offset="0.47" style="stop-color:#D37765"/>
			<stop  offset="1" style="stop-color:#86270D"/>
		</linearGradient>
		<path style="fill:url(#SVGID_00000084501673307215107910000000998095652953696670_);" d="M1270.9,225.4v-54.2l-7.2-3.3v-2
			l14.7-3.9v28.7l9.5-7.4c1.1-0.3,2.3-0.5,3.8-0.5c5.7,0,10.3,2.2,13.7,6.5c3.4,4.4,5.1,9.7,5.1,16c0,7.3-2.3,13.1-7,17.4
			c-4.7,4.3-10.5,6.4-17.4,6.4C1281,229.3,1275.9,228,1270.9,225.4L1270.9,225.4z M1288.9,224.5c3.8,0,7-1.5,9.5-4.5
			c2.6-3,3.9-7.1,3.9-12.4s-1.2-9.5-3.7-12.8c-2.5-3.2-5.5-4.9-9-4.9c-4,0-7.7,1.9-11.1,5.8v24.6
			C1281.6,223.1,1285,224.5,1288.9,224.5L1288.9,224.5z"/>
	</g>
</g>
<g>
	
		<linearGradient id="SVGID_00000099654134088782681370000006389425924138297762_" gradientUnits="userSpaceOnUse" x1="-88.4817" y1="33.3751" x2="929.5184" y2="48.3751">
		<stop  offset="0" style="stop-color:#FEF3F0"/>
		<stop  offset="0.47" style="stop-color:#D37765"/>
		<stop  offset="1" style="stop-color:#86270D"/>
	</linearGradient>
	<path style="fill:url(#SVGID_00000099654134088782681370000006389425924138297762_);" d="M0,68.8v-3.3l9.2-3V6.1L0,4.7V1.1h31.6
		c6,0,10.7,1.5,14.2,4.4c3.4,2.9,5.2,6.5,5.2,10.7c0,3.5-1.2,6.8-3.6,9.8c-2.4,3-5.7,5.1-10.1,6.5c5.3,0.8,9.5,2.7,12.5,5.9
		c3.1,3.1,4.6,6.8,4.6,11.1c0,5.3-2.3,9.8-7,13.7c-4.7,3.8-11,5.8-19,5.8H0z M18.3,30.5h7.9c4.5,0,8.2-1.3,11-4
		c2.8-2.7,4.2-5.8,4.2-9.3c0-3.3-1.2-6-3.7-8.2c-2.5-2.2-5.8-3.2-10.2-3.2h-9.3V30.5z M18.3,63.7h8.6c5.4,0,9.6-1.4,12.8-4.2
		c3.2-2.8,4.7-6.2,4.7-10.2c0-3.8-1.5-7.1-4.4-9.8c-3-2.7-7-4.1-12.2-4.1h-9.5V63.7z"/>
	
		<linearGradient id="SVGID_00000075853169104154568920000000796579211933223610_" gradientUnits="userSpaceOnUse" x1="-88.6262" y1="43.1838" x2="929.3738" y2="58.1838">
		<stop  offset="0" style="stop-color:#FEF3F0"/>
		<stop  offset="0.47" style="stop-color:#D37765"/>
		<stop  offset="1" style="stop-color:#86270D"/>
	</linearGradient>
	<path style="fill:url(#SVGID_00000075853169104154568920000000796579211933223610_);" d="M107.8,45.6c0,6.9-2.1,12.7-6.4,17.3
		c-4.3,4.6-9.8,6.9-16.5,6.9c-6.6,0-12-2.3-16.1-6.9c-4.1-4.6-6.1-10.3-6.1-17c0-6.9,2.1-12.7,6.4-17.3c4.3-4.6,9.8-7,16.5-7
		c6.6,0,11.9,2.3,16.1,6.9C105.8,33.2,107.8,38.9,107.8,45.6z M98.6,47c0-5.8-1.3-10.7-3.8-14.7c-2.5-4-5.9-6-10.2-6
		c-3.9,0-6.9,1.7-9.2,5.1c-2.3,3.4-3.4,7.9-3.4,13.3c0,5.8,1.3,10.7,3.8,14.7c2.5,4,5.9,6,10.1,6c3.9,0,6.9-1.7,9.2-5.1
		C97.4,56.9,98.6,52.5,98.6,47z"/>
	
		<linearGradient id="SVGID_00000117654027115700461910000011974024917159824516_" gradientUnits="userSpaceOnUse" x1="-88.6149" y1="42.4188" x2="929.3851" y2="57.4188">
		<stop  offset="0" style="stop-color:#FEF3F0"/>
		<stop  offset="0.47" style="stop-color:#D37765"/>
		<stop  offset="1" style="stop-color:#86270D"/>
	</linearGradient>
	<path style="fill:url(#SVGID_00000117654027115700461910000011974024917159824516_);" d="M159.8,45.6c0,6.9-2.1,12.7-6.4,17.3
		c-4.3,4.6-9.8,6.9-16.5,6.9c-6.6,0-12-2.3-16.1-6.9c-4.1-4.6-6.1-10.3-6.1-17c0-6.9,2.1-12.7,6.4-17.3c4.3-4.6,9.8-7,16.5-7
		c6.6,0,11.9,2.3,16.1,6.9C157.7,33.2,159.8,38.9,159.8,45.6z M150.5,47c0-5.8-1.3-10.7-3.8-14.7c-2.5-4-5.9-6-10.2-6
		c-3.9,0-6.9,1.7-9.2,5.1c-2.3,3.4-3.4,7.9-3.4,13.3c0,5.8,1.3,10.7,3.8,14.7c2.5,4,5.9,6,10.1,6c3.9,0,6.9-1.7,9.2-5.1
		C149.3,56.9,150.5,52.5,150.5,47z"/>
	
		<linearGradient id="SVGID_00000172424832894896235310000013693093168242302890_" gradientUnits="userSpaceOnUse" x1="-88.4396" y1="30.5229" x2="929.5604" y2="45.5229">
		<stop  offset="0" style="stop-color:#FEF3F0"/>
		<stop  offset="0.47" style="stop-color:#D37765"/>
		<stop  offset="1" style="stop-color:#86270D"/>
	</linearGradient>
	<path style="fill:url(#SVGID_00000172424832894896235310000013693093168242302890_);" d="M181.3,0v63.9l7.8,1.2v3.7h-23.6v-3.4
		l7.8-2.6V9.6l-7.4-3.5V4.2L181.3,0z M214.9,26.1l-7.2,1.1L190.9,42l24,23.4v3.4h-8.6L182.4,44l17.8-16.2l-8.5-2v-3.2h23.2V26.1z"/>
	
		<linearGradient id="SVGID_00000027604174830281356460000003690857272150350264_" gradientUnits="userSpaceOnUse" x1="-88.4243" y1="29.484" x2="929.5757" y2="44.484">
		<stop  offset="0" style="stop-color:#FEF3F0"/>
		<stop  offset="0.47" style="stop-color:#D37765"/>
		<stop  offset="1" style="stop-color:#86270D"/>
	</linearGradient>
	<path style="fill:url(#SVGID_00000027604174830281356460000003690857272150350264_);" d="M257.3,68.8v-3.3l9.2-3V42.6l-20-35.1
		l-8.3-3.1V1.1h28.1v3.7l-10.1,1.4l16.3,31.6l15.7-30.3l-10.1-3.1V1.1h24.8v3.7l-8.3,1.4l-18.9,36.3v21.4l9.3,1.5v3.6H257.3z"/>
	
		<linearGradient id="SVGID_00000045604542352123212080000002838802566366721414_" gradientUnits="userSpaceOnUse" x1="-88.5752" y1="39.7232" x2="929.4248" y2="54.7232">
		<stop  offset="0" style="stop-color:#FEF3F0"/>
		<stop  offset="0.47" style="stop-color:#D37765"/>
		<stop  offset="1" style="stop-color:#86270D"/>
	</linearGradient>
	<path style="fill:url(#SVGID_00000045604542352123212080000002838802566366721414_);" d="M342.7,45.6c0,6.9-2.1,12.7-6.4,17.3
		c-4.3,4.6-9.8,6.9-16.5,6.9c-6.6,0-12-2.3-16.1-6.9c-4.1-4.6-6.1-10.3-6.1-17c0-6.9,2.1-12.7,6.4-17.3c4.3-4.6,9.8-7,16.5-7
		c6.6,0,11.9,2.3,16.1,6.9C340.7,33.2,342.7,38.9,342.7,45.6z M333.5,47c0-5.8-1.3-10.7-3.8-14.7c-2.5-4-5.9-6-10.2-6
		c-3.9,0-6.9,1.7-9.2,5.1c-2.3,3.4-3.4,7.9-3.4,13.3c0,5.8,1.3,10.7,3.8,14.7c2.5,4,5.9,6,10.1,6c3.9,0,6.9-1.7,9.2-5.1
		C332.3,56.9,333.5,52.5,333.5,47z"/>
	
		<linearGradient id="SVGID_00000132784435237598293900000006183784872121116575_" gradientUnits="userSpaceOnUse" x1="-88.5683" y1="39.2585" x2="929.4316" y2="54.2585">
		<stop  offset="0" style="stop-color:#FEF3F0"/>
		<stop  offset="0.47" style="stop-color:#D37765"/>
		<stop  offset="1" style="stop-color:#86270D"/>
	</linearGradient>
	<path style="fill:url(#SVGID_00000132784435237598293900000006183784872121116575_);" d="M392.5,22.5v39.6l7.4,1.8V67L386,69.8
		V59.7l-10,9.2c-1.7,0.6-3.7,1-5.8,1c-4.9,0-8.6-1.5-11.1-4.5c-2.5-3-3.7-7.3-3.7-12.8V28.3l-7.8-2.2v-3.6h15.7v29
		c0,3.5,0.8,6.2,2.4,8.1c1.6,1.8,3.7,2.8,6.3,2.8c4.2,0,8.4-2.1,12.7-6.4V28.3l-7.8-2.2v-3.6H392.5z"/>
	
		<linearGradient id="SVGID_00000008850741717010425210000011347657247032876193_" gradientUnits="userSpaceOnUse" x1="-88.5477" y1="37.8577" x2="929.4523" y2="52.8577">
		<stop  offset="0" style="stop-color:#FEF3F0"/>
		<stop  offset="0.47" style="stop-color:#D37765"/>
		<stop  offset="1" style="stop-color:#86270D"/>
	</linearGradient>
	<path style="fill:url(#SVGID_00000008850741717010425210000011347657247032876193_);" d="M403.2,68.8v-3.4l7.8-2.6V31.2l-7.6-3.6
		v-1.9l14.8-4.1v11.6l10.6-11.1c3.9,0,6.9,0.5,9,1.5l-2.4,9.4c-1.9-0.9-4.1-1.4-6.4-1.4c-4.1,0-7.4,1.9-10.2,5.8v26.5l7.9,1.2v3.7
		H403.2z"/>
	
		<linearGradient id="SVGID_00000166671527451972653620000017504178991567221651_" gradientUnits="userSpaceOnUse" x1="-88.3769" y1="26.2684" x2="929.623" y2="41.2684">
		<stop  offset="0" style="stop-color:#FEF3F0"/>
		<stop  offset="0.47" style="stop-color:#D37765"/>
		<stop  offset="1" style="stop-color:#86270D"/>
	</linearGradient>
	<path style="fill:url(#SVGID_00000166671527451972653620000017504178991567221651_);" d="M476.5,68.8v-3.3l9.3-3V5.7H471l-8.4,12.5
		h-3l1-17.1h59.7l1,17.1h-3l-8.3-12.5h-14.8v58l9.2,1.5v3.6H476.5z"/>
	
		<linearGradient id="SVGID_00000183238560721544685740000002062960067157157023_" gradientUnits="userSpaceOnUse" x1="-88.5282" y1="36.5362" x2="929.4717" y2="51.5362">
		<stop  offset="0" style="stop-color:#FEF3F0"/>
		<stop  offset="0.47" style="stop-color:#D37765"/>
		<stop  offset="1" style="stop-color:#86270D"/>
	</linearGradient>
	<path style="fill:url(#SVGID_00000183238560721544685740000002062960067157157023_);" d="M549,60l-9.2,8.5
		c-1.9,0.9-4.2,1.4-6.9,1.4c-3.7,0-6.8-1.3-9.2-3.8c-2.4-2.5-3.6-5.5-3.6-9c0-3.1,1-5.8,3.1-8.1c2.1-2.3,5.1-3.9,9.1-4.6l14.9-3.1
		v-4.3c0-7.5-2.9-11.2-8.6-11.2c-2.8,0-5.1,1-6.7,3c-1.6,2-2.4,4.6-2.4,7.8l0.1,1.8h-3.7l-4.4-9.8c5.2-4.6,11.3-7,18.2-7
		c4.5,0,8.2,1.2,11,3.5c2.8,2.3,4.2,5.6,4.2,9.8V59c0,3.6,1.1,5.4,3.2,5.4c1.9,0,3.4-0.9,4.7-2.8l1,2.8c-1.3,3.6-3.8,5.4-7.5,5.4
		C551.5,69.8,549,66.5,549,60z M547.4,56.8V45.4l-10.5,2.4c-2.8,0.6-5,1.7-6.5,3.2c-1.5,1.6-2.2,3.4-2.2,5.4c0,1.9,0.6,3.6,1.9,4.9
		c1.3,1.3,2.9,2,5,2C538.6,63.3,542.7,61.1,547.4,56.8z"/>
	
		<linearGradient id="SVGID_00000046312367732555326060000000510124067917663664_" gradientUnits="userSpaceOnUse" x1="-88.3584" y1="25.0115" x2="929.6416" y2="40.0115">
		<stop  offset="0" style="stop-color:#FEF3F0"/>
		<stop  offset="0.47" style="stop-color:#D37765"/>
		<stop  offset="1" style="stop-color:#86270D"/>
	</linearGradient>
	<path style="fill:url(#SVGID_00000046312367732555326060000000510124067917663664_);" d="M572,65.9V9.6l-7.4-3.5v-2L579.8,0v29.9
		l9.9-7.7c1.1-0.3,2.4-0.5,4-0.5c5.9,0,10.7,2.3,14.2,6.8c3.5,4.5,5.3,10.1,5.3,16.6c0,7.6-2.4,13.6-7.3,18.1s-10.9,6.7-18,6.7
		C582.4,69.8,577.1,68.5,572,65.9z M590.6,64.9c3.9,0,7.2-1.5,9.9-4.6c2.7-3.1,4-7.4,4-12.9c0-5.5-1.3-9.9-3.9-13.3
		c-2.6-3.4-5.7-5.1-9.4-5.1c-4.1,0-8,2-11.5,6v25.5C583,63.4,586.6,64.9,590.6,64.9z"/>
	
		<linearGradient id="SVGID_00000067922115785005223930000006418679205644443064_" gradientUnits="userSpaceOnUse" x1="-88.3413" y1="23.8516" x2="929.6587" y2="38.8516">
		<stop  offset="0" style="stop-color:#FEF3F0"/>
		<stop  offset="0.47" style="stop-color:#D37765"/>
		<stop  offset="1" style="stop-color:#86270D"/>
	</linearGradient>
	<path style="fill:url(#SVGID_00000067922115785005223930000006418679205644443064_);" d="M618.5,68.8v-3.4l7.8-2.6V9.6l-7.4-3.5
		V4.2L634.1,0v63.9l7.8,1.2v3.7H618.5z"/>
	
		<linearGradient id="SVGID_00000134222883581976708770000015676028525194518709_" gradientUnits="userSpaceOnUse" x1="-88.4995" y1="34.5848" x2="929.5005" y2="49.5848">
		<stop  offset="0" style="stop-color:#FEF3F0"/>
		<stop  offset="0.47" style="stop-color:#D37765"/>
		<stop  offset="1" style="stop-color:#86270D"/>
	</linearGradient>
	<path style="fill:url(#SVGID_00000134222883581976708770000015676028525194518709_);" d="M685.3,54l2,2.7c-1.9,4.2-4.5,7.4-7.9,9.7
		c-3.4,2.3-7.1,3.4-11.1,3.4c-5.7,0-10.7-2.2-14.8-6.5c-4.1-4.3-6.2-10-6.2-17.1c0-7.3,2.2-13.2,6.5-17.7c4.4-4.5,9.6-6.8,15.8-6.8
		c5.4,0,9.7,1.8,12.8,5.4c3.1,3.6,4.7,8.7,4.7,15.2c0,1.2,0,2.1-0.1,2.5h-32.3c0.2,5.4,1.8,9.6,4.9,12.9c3.1,3.2,6.8,4.8,11.1,4.8
		C676.9,62.5,681.8,59.6,685.3,54z M655,40h24c0-4.5-1-7.9-2.9-10.3c-1.9-2.3-4.5-3.5-7.8-3.5c-3.4,0-6.2,1.3-8.7,3.9
		C657.2,32.8,655.7,36,655,40z"/>
</g>
</svg>
