<?xml version="1.0" encoding="UTF-8"?>
<svg id="Layer_2" data-name="Layer 2" xmlns="http://www.w3.org/2000/svg" xmlns:xlink="http://www.w3.org/1999/xlink" viewBox="0 0 305.78 121.8">
  <defs>
    <style>
      .cls-1 {
        fill: url(#linear-gradient-2);
      }

      .cls-2 {
        fill: url(#linear-gradient-6);
      }

      .cls-3 {
        opacity: .52;
      }

      .cls-4 {
        fill: url(#linear-gradient-11);
      }

      .cls-5 {
        fill: url(#linear-gradient-10);
      }

      .cls-6 {
        fill: #fbd2c7;
        font-family: OpenSans-Regular, 'Open Sans';
        font-size: 15.02px;
        font-variation-settings: ';
      }

      .cls-7 {
        fill: url(#linear-gradient-5);
      }

      .cls-8 {
        fill: url(#linear-gradient-7);
      }

      .cls-9 {
        fill: url(#linear-gradient-9);
      }

      .cls-10 {
        fill: url(#linear-gradient-3);
      }

      .cls-11 {
        fill: url(#linear-gradient);
      }

      .cls-12 {
        fill: url(#linear-gradient-4);
      }

      .cls-13 {
        fill: url(#linear-gradient-8);
      }

      .cls-14 {
        fill: url(#linear-gradient-12);
      }

      .cls-15 {
        fill: url(#linear-gradient-13);
      }
    </style>
    <linearGradient id="linear-gradient" x1="-14.31" y1="20.8" x2="562.48" y2="-107.46" gradientUnits="userSpaceOnUse">
      <stop offset="0" stop-color="#fef3f0"/>
      <stop offset=".47" stop-color="#d37765"/>
      <stop offset="1" stop-color="#86270d"/>
    </linearGradient>
    <linearGradient id="linear-gradient-2" x1="-13.03" y1="26.56" x2="563.76" y2="-101.7" xlink:href="#linear-gradient"/>
    <linearGradient id="linear-gradient-3" x1="-11.06" y1="35.4" x2="565.73" y2="-92.86" xlink:href="#linear-gradient"/>
    <linearGradient id="linear-gradient-4" x1="-9.83" y1="40.97" x2="566.97" y2="-87.29" xlink:href="#linear-gradient"/>
    <linearGradient id="linear-gradient-5" x1="-7.79" y1="50.11" x2="569" y2="-78.15" xlink:href="#linear-gradient"/>
    <linearGradient id="linear-gradient-6" x1="-7.5" y1="51.41" x2="569.29" y2="-76.84" xlink:href="#linear-gradient"/>
    <linearGradient id="linear-gradient-7" x1="-5.71" y1="59.47" x2="571.08" y2="-68.79" xlink:href="#linear-gradient"/>
    <linearGradient id="linear-gradient-8" x1="-5.52" y1="60.35" x2="571.28" y2="-67.91" xlink:href="#linear-gradient"/>
    <linearGradient id="linear-gradient-9" x1="-4.59" y1="64.52" x2="572.21" y2="-63.73" xlink:href="#linear-gradient"/>
    <linearGradient id="linear-gradient-10" x1="-3.93" y1="67.47" x2="572.86" y2="-60.78" xlink:href="#linear-gradient"/>
    <linearGradient id="linear-gradient-11" x1="-2.96" y1="71.86" x2="573.84" y2="-56.4" xlink:href="#linear-gradient"/>
    <linearGradient id="linear-gradient-12" x1="-1.41" y1="78.8" x2="575.38" y2="-49.45" xlink:href="#linear-gradient"/>
    <linearGradient id="linear-gradient-13" x1="-1.33" y1="79.17" x2="575.46" y2="-49.09" xlink:href="#linear-gradient"/>
  </defs>
  <g id="Layer_1-2" data-name="Layer 1">
    <g class="cls-3">
      <text class="cls-6" transform="translate(0 73.68)"><tspan x="0" y="0">Reservations - 200,000 Ugx Comes with sits </tspan><tspan x="29.55" y="22.02" xml:space="preserve">Booth  - 100,000 Ugx Cocktail table </tspan><tspan x="102.74" y="44.04">without sitting</tspan></text>
    </g>
    <g>
      <path class="cls-11" d="M19.85,8.78c0-1.98-.62-3.52-1.86-4.62-1.21-1.11-2.7-1.66-4.47-1.66-2.42,0-4.54,.96-6.36,2.89s-2.73,4.55-2.73,7.87,.89,6.21,2.67,8.58c1.78,2.37,4.16,3.56,7.14,3.56,2,0,3.84-.57,5.51-1.72,1.67-1.15,3.02-2.79,4.05-4.92l1.07,1.34c-.82,2.9-2.25,5.14-4.31,6.72-2,1.5-4.28,2.25-6.84,2.25-1.61,.03-3.18-.29-4.72-.95-1.54-.66-2.92-1.58-4.13-2.77-1.21-1.19-2.17-2.69-2.89-4.53-.71-1.83-1.05-3.83-1.03-5.99-.05-4.35,1.24-7.92,3.87-10.71C7.47,1.32,10.65-.05,14.4,0,17.74,0,20.94,1.12,24,3.36l-2.73,6.88h-1.54c.08-.5,.12-.99,.12-1.46Z"/>
      <path class="cls-1" d="M27.84,28.34v-1.38l3.2-1.07V4.15l-3-1.38v-.83L34.28,.24V12.81l3.64-3.36c.95-.24,1.84-.36,2.69-.36,1.9,0,3.4,.61,4.51,1.84s1.66,2.91,1.66,5.04v10.4l3.2,.47v1.5h-9.61v-1.38l3.2-1.07v-9.37c0-1.45-.36-2.55-1.07-3.3-.71-.75-1.65-1.13-2.81-1.13-1.92,0-3.73,.88-5.42,2.65v11.62l3.2,.47v1.5h-9.65Z"/>
      <path class="cls-10" d="M63.73,24.75l-3.76,3.48c-.79,.37-1.73,.55-2.81,.55-1.53,0-2.78-.51-3.76-1.54-.97-1.03-1.46-2.25-1.46-3.68,0-1.26,.43-2.37,1.28-3.32s2.1-1.58,3.74-1.9l6.09-1.26v-1.74c0-3.06-1.17-4.58-3.52-4.58-1.16,0-2.07,.42-2.73,1.25-.66,.83-.99,1.89-.99,3.18l.04,.75h-1.5l-1.78-3.99c2.13-1.9,4.61-2.85,7.43-2.85,1.84,0,3.34,.47,4.49,1.42,1.15,.95,1.72,2.28,1.72,3.99v9.84c0,1.48,.43,2.21,1.3,2.21,.76,0,1.41-.38,1.94-1.15l.4,1.15c-.53,1.48-1.56,2.21-3.08,2.21-2.03,0-3.04-1.34-3.04-4.03Zm-.67-1.3v-4.66l-4.31,.99c-1.16,.24-2.04,.68-2.65,1.32-.61,.65-.91,1.38-.91,2.19s.26,1.46,.77,2c.51,.54,1.19,.81,2.04,.81,1.45,0,3.14-.88,5.06-2.65Z"/>
      <path class="cls-12" d="M70.84,28.34v-1.38l3.2-1.07V13.01l-3.12-1.46v-.79l6.05-1.66v4.07l3.91-3.72c.92-.24,1.7-.36,2.33-.36,1.29,0,2.4,.34,3.32,1.01,.92,.67,1.54,1.65,1.86,2.95l3.91-3.6c.76-.24,1.58-.36,2.45-.36,1.84,0,3.23,.6,4.15,1.8,.92,1.2,1.38,2.84,1.38,4.92v10.55l3.2,.47v1.5h-9.41v-1.42l3-1.03v-9.21c0-1.42-.32-2.54-.97-3.36-.65-.82-1.5-1.22-2.55-1.22-1.56,0-3.15,.88-4.78,2.65v11.62l3,.47v1.5h-9.21v-1.42l3-1.03v-9.21c0-1.42-.32-2.54-.95-3.36-.63-.82-1.48-1.22-2.53-1.22-1.66,0-3.27,.88-4.82,2.65v11.62l3,.47v1.5h-9.45Z"/>
      <path class="cls-7" d="M104.68,37.44v-1.38l3.2-1.07V13.01l-3.12-1.46v-.79l6.05-1.66v3.6l4.39-3.36c.5-.16,1.04-.24,1.62-.24,2.4,0,4.32,.87,5.77,2.61,1.45,1.74,2.17,3.93,2.17,6.56,.05,2.98-.9,5.44-2.87,7.39-1.96,1.95-4.17,2.9-6.62,2.85-1.74,0-3.14-.33-4.19-.99v7.91l3.95,.63v1.38h-10.36Zm15-12.89c1.04-1.29,1.56-3.06,1.56-5.3s-.51-3.99-1.52-5.26c-1.01-1.26-2.29-1.9-3.82-1.9-1.77,0-3.37,.82-4.82,2.45v9.29c1.03,1.77,2.54,2.65,4.55,2.65,1.66,0,3.01-.65,4.05-1.94Z"/>
      <path class="cls-2" d="M139.31,24.75l-3.76,3.48c-.79,.37-1.73,.55-2.81,.55-1.53,0-2.78-.51-3.75-1.54-.98-1.03-1.46-2.25-1.46-3.68,0-1.26,.43-2.37,1.28-3.32s2.1-1.58,3.74-1.9l6.09-1.26v-1.74c0-3.06-1.17-4.58-3.52-4.58-1.16,0-2.07,.42-2.73,1.25s-.99,1.89-.99,3.18l.04,.75h-1.5l-1.78-3.99c2.13-1.9,4.61-2.85,7.43-2.85,1.84,0,3.34,.47,4.49,1.42,1.15,.95,1.72,2.28,1.72,3.99v9.84c0,1.48,.44,2.21,1.3,2.21,.76,0,1.41-.38,1.94-1.15l.39,1.15c-.53,1.48-1.55,2.21-3.08,2.21-2.03,0-3.04-1.34-3.04-4.03Zm-.67-1.3v-4.66l-4.31,.99c-1.16,.24-2.04,.68-2.65,1.32-.61,.65-.91,1.38-.91,2.19s.26,1.46,.77,2,1.19,.81,2.04,.81c1.45,0,3.14-.88,5.06-2.65Z"/>
      <path class="cls-8" d="M166.78,9.45v2.45l-5.89-.43c.95,.71,1.67,1.45,2.17,2.21,.5,.77,.75,1.73,.75,2.89,0,1.92-.78,3.48-2.35,4.66s-3.35,1.78-5.36,1.78c-1.42,0-2.71-.3-3.88-.91-.92,.47-1.38,1.2-1.38,2.17,0,.66,.24,1.2,.73,1.62,.49,.42,1.18,.63,2.08,.63h7.43c1.61,0,2.88,.38,3.83,1.13,.95,.75,1.42,1.81,1.42,3.18,0,2.11-1.1,3.81-3.3,5.1-2.2,1.29-4.76,1.94-7.69,1.94-2.37,0-4.39-.44-6.05-1.3-1.66-.87-2.49-2.1-2.49-3.68,0-.47,.09-.91,.28-1.3l3.99-2.45c-.9-.4-1.59-.96-2.09-1.7-.5-.74-.75-1.53-.75-2.37,0-.79,.25-1.52,.75-2.19s1.19-1.18,2.06-1.52c-1.71-1.37-2.57-3.18-2.57-5.42,0-1.95,.71-3.58,2.13-4.88,1.42-1.3,3.2-1.96,5.34-1.96,.71,0,1.65,.12,2.81,.36h8.02Zm-16.48,23.24c0,1.03,.54,1.83,1.62,2.39,1.08,.57,2.48,.85,4.19,.85,2.08,0,3.78-.43,5.1-1.29s1.98-1.81,1.98-2.87c0-.66-.29-1.2-.87-1.62s-1.37-.63-2.37-.63h-6.8c-1.9,.71-2.85,1.77-2.85,3.16Zm10.24-16.37c0-1.55-.41-2.83-1.23-3.81s-1.91-1.48-3.28-1.48c-1.29,0-2.31,.45-3.06,1.34-.75,.9-1.13,2.06-1.13,3.48,0,1.53,.41,2.78,1.24,3.75,.83,.98,1.94,1.46,3.34,1.46,1.32,0,2.33-.43,3.04-1.29,.71-.86,1.07-2.01,1.07-3.46Z"/>
      <path class="cls-13" d="M167.57,28.34v-1.38l3.2-1.07V13.01l-3.12-1.46v-.79l6.05-1.66v3.99l3.91-3.64c1-.24,1.9-.36,2.69-.36,1.92,0,3.43,.6,4.53,1.8,1.09,1.2,1.64,2.89,1.64,5.08v10.4l3.2,.47v1.5h-9.61v-1.38l3.2-1.07v-9.37c0-1.45-.36-2.55-1.07-3.3-.71-.75-1.65-1.13-2.81-1.13-1.92,0-3.73,.88-5.42,2.65v11.62l3.2,.47v1.5h-9.61Z"/>
      <path class="cls-9" d="M207.18,22.3l.83,1.11c-.76,1.71-1.84,3.04-3.24,3.97-1.4,.94-2.91,1.4-4.55,1.4-2.35,0-4.36-.88-6.05-2.65-1.69-1.76-2.53-4.1-2.53-7s.89-5.4,2.67-7.25c1.78-1.86,3.93-2.79,6.46-2.79,2.21,0,3.96,.74,5.24,2.21,1.28,1.48,1.92,3.54,1.92,6.21,0,.5-.01,.84-.04,1.03h-13.2c.08,2.19,.75,3.94,2.02,5.26s2.78,1.98,4.55,1.98c2.5,0,4.48-1.16,5.93-3.48Zm-12.37-5.69h9.8c0-1.84-.4-3.24-1.19-4.19-.79-.95-1.86-1.42-3.2-1.42s-2.55,.53-3.54,1.58-1.62,2.4-1.88,4.03Z"/>
      <path class="cls-5" d="M240.15,8.78c0-1.98-.62-3.52-1.86-4.62-1.21-1.11-2.7-1.66-4.47-1.66-2.42,0-4.55,.96-6.36,2.89s-2.73,4.55-2.73,7.87,.89,6.21,2.67,8.58,4.16,3.56,7.14,3.56c2,0,3.84-.57,5.51-1.72,1.67-1.15,3.02-2.79,4.05-4.92l1.07,1.34c-.82,2.9-2.25,5.14-4.31,6.72-2,1.5-4.28,2.25-6.84,2.25-1.61,.03-3.18-.29-4.72-.95-1.54-.66-2.92-1.58-4.13-2.77-1.21-1.19-2.17-2.69-2.89-4.53-.71-1.83-1.05-3.83-1.03-5.99-.05-4.35,1.24-7.92,3.87-10.71C227.76,1.32,230.95-.05,234.69,0c3.35,0,6.55,1.12,9.61,3.36l-2.73,6.88h-1.54c.08-.5,.12-.99,.12-1.46Z"/>
      <path class="cls-4" d="M247.94,28.34v-1.38l3.2-1.07V4.15l-3.04-1.42v-.79l6.25-1.7V26.37l3.2,.47v1.5h-9.61Z"/>
      <path class="cls-14" d="M277.27,9.45V25.62l3,.75v1.27l-5.65,1.15v-4.15l-4.07,3.75c-.71,.26-1.5,.4-2.37,.4-2,0-3.51-.62-4.53-1.86-1.02-1.24-1.52-2.98-1.52-5.22V11.82l-3.2-.91v-1.46h6.4v11.86c0,1.45,.32,2.55,.97,3.3,.64,.75,1.51,1.13,2.59,1.13,1.71,0,3.44-.87,5.18-2.61V11.82l-3.2-.91v-1.46h6.4Z"/>
      <path class="cls-15" d="M283.91,27.16V4.15l-3.04-1.42v-.83l6.25-1.66V12.45l4.03-3.16c.45-.13,.99-.2,1.62-.2,2.42,0,4.36,.92,5.81,2.77,1.45,1.85,2.17,4.11,2.17,6.8,0,3.11-.99,5.57-2.98,7.39s-4.45,2.73-7.37,2.73c-2.21,0-4.38-.54-6.48-1.62Zm7.63-.4c1.61,0,2.96-.63,4.05-1.9,1.09-1.27,1.64-3.02,1.64-5.26s-.53-4.05-1.58-5.44c-1.05-1.38-2.33-2.07-3.83-2.07-1.69,0-3.25,.82-4.7,2.45v10.44c1.32,1.19,2.79,1.78,4.43,1.78Z"/>
    </g>
  </g>
</svg>