<?xml version="1.0" encoding="utf-8"?>
<!-- Generator: Adobe Illustrator 27.0.0, SVG Export Plug-In . SVG Version: 6.00 Build 0)  -->
<svg version="1.1" id="Layer_1" xmlns="http://www.w3.org/2000/svg" xmlns:xlink="http://www.w3.org/1999/xlink" x="0px" y="0px"
	 viewBox="0 0 80 80" style="enable-background:new 0 0 80 80;" xml:space="preserve">
<style type="text/css">
	.st0{fill:#FBD2C7;}
</style>
<path class="st0" d="M58.5,40.5c0.6,2.4,0.9,4.9,0.8,7.3l-6.5-1.2c-2-0.4-4,0.9-4.6,2.9l-4,14.8c-0.5,2,0.6,4.1,2.5,4.8l2.1,0.7
	c1.4,0.5,3,0.2,4.1-0.9c7.4-7.3,10.5-18.8,7.9-29.1L58.5,40.5z M50.6,67.7l-4.2-1.5L51,48.8l8.2,1.4C58.5,57.1,55.5,63.3,50.6,67.7z
	 M56.2,2.8H51c-9.3,0-16.9,7.6-16.9,16.9v16.9h22.1c9.3,0,16.9-7.6,16.9-16.9S65.6,2.8,56.2,2.8z M56.2,34H36.7V19.6
	c0-7.9,6.4-14.4,14.4-14.4h5.2c7.9,0,14.4,6.4,14.4,14.4S64.2,34,56.2,34z M20.2,69.7l1.8-0.6c2-0.7,3.1-2.8,2.5-4.8l-4-14.8
	c-0.5-2-2.5-3.3-4.6-2.9l-6.5,1.2c0,0,0,0,0,0c-0.2-13.4,8.7-24.7,21-26.8L30,18.4C16.6,20.7,6.9,32.9,6.9,47.4c0,0.7,0,1.3,0.1,1.9
	c0.5,8.2,4.1,15.6,10,20.8l0,0l6.6,6.4c0.7,0.7,1.7,1.1,2.8,1.1h11.6V75H25.7L20.2,69.7z M9.5,50.2l8.2-1.4l4.7,17.4l-4.2,1.5
	C13.2,63.3,10.2,57.1,9.5,50.2z"/>
</svg>
