<?xml version="1.0" encoding="UTF-8"?>
<svg id="Layer_2" data-name="Layer 2" xmlns="http://www.w3.org/2000/svg" xmlns:xlink="http://www.w3.org/1999/xlink" viewBox="0 0 323.78 94.96">
  <defs>
    <style>
      .cls-1 {
        fill: url(#linear-gradient-2);
      }

      .cls-2 {
        fill: url(#linear-gradient-15);
      }

      .cls-3 {
        fill: url(#linear-gradient-14);
      }

      .cls-4 {
        fill: url(#linear-gradient-6);
      }

      .cls-5 {
        opacity: .52;
      }

      .cls-6 {
        fill: url(#linear-gradient-11);
      }

      .cls-7 {
        fill: url(#linear-gradient-10);
      }

      .cls-8 {
        fill: #fbd2c7;
        font-family: OpenSans-Regular, 'Open Sans';
        font-size: 15.02px;
        font-variation-settings: ';
      }

      .cls-9 {
        fill: url(#linear-gradient-5);
      }

      .cls-10 {
        fill: url(#linear-gradient-7);
      }

      .cls-11 {
        fill: url(#linear-gradient-9);
      }

      .cls-12 {
        fill: url(#linear-gradient-3);
      }

      .cls-13 {
        fill: url(#linear-gradient);
      }

      .cls-14 {
        fill: url(#linear-gradient-4);
      }

      .cls-15 {
        fill: url(#linear-gradient-8);
      }

      .cls-16 {
        fill: url(#linear-gradient-12);
      }

      .cls-17 {
        fill: url(#linear-gradient-13);
      }
    </style>
    <linearGradient id="linear-gradient" x1="-10.74" y1="20.33" x2="506.69" y2="-68.35" gradientUnits="userSpaceOnUse">
      <stop offset="0" stop-color="#fef3f0"/>
      <stop offset=".47" stop-color="#d37765"/>
      <stop offset="1" stop-color="#86270d"/>
    </linearGradient>
    <linearGradient id="linear-gradient-2" x1="-10.02" y1="24.49" x2="507.4" y2="-64.19" xlink:href="#linear-gradient"/>
    <linearGradient id="linear-gradient-3" x1="-9.42" y1="28.04" x2="508.01" y2="-60.64" xlink:href="#linear-gradient"/>
    <linearGradient id="linear-gradient-4" x1="-8.14" y1="35.48" x2="509.29" y2="-53.2" xlink:href="#linear-gradient"/>
    <linearGradient id="linear-gradient-5" x1="-8.41" y1="33.92" x2="509.02" y2="-54.76" xlink:href="#linear-gradient"/>
    <linearGradient id="linear-gradient-6" x1="-6.48" y1="45.17" x2="510.95" y2="-43.51" xlink:href="#linear-gradient"/>
    <linearGradient id="linear-gradient-7" x1="-7.27" y1="40.57" x2="510.16" y2="-48.11" xlink:href="#linear-gradient"/>
    <linearGradient id="linear-gradient-8" x1="-6.44" y1="45.4" x2="510.99" y2="-43.28" xlink:href="#linear-gradient"/>
    <linearGradient id="linear-gradient-9" x1="-6.03" y1="47.81" x2="511.4" y2="-40.88" xlink:href="#linear-gradient"/>
    <linearGradient id="linear-gradient-10" x1="-4.53" y1="56.54" x2="512.9" y2="-32.14" xlink:href="#linear-gradient"/>
    <linearGradient id="linear-gradient-11" x1="-4.06" y1="59.3" x2="513.37" y2="-29.38" xlink:href="#linear-gradient"/>
    <linearGradient id="linear-gradient-12" x1="-3.62" y1="61.85" x2="513.81" y2="-26.83" xlink:href="#linear-gradient"/>
    <linearGradient id="linear-gradient-13" x1="-3.04" y1="65.25" x2="514.39" y2="-23.43" xlink:href="#linear-gradient"/>
    <linearGradient id="linear-gradient-14" x1="-2.55" y1="68.11" x2="514.88" y2="-20.57" xlink:href="#linear-gradient"/>
    <linearGradient id="linear-gradient-15" x1="-2.02" y1="71.21" x2="515.41" y2="-17.47" xlink:href="#linear-gradient"/>
  </defs>
  <g id="Layer_1-2" data-name="Layer 1">
    <g class="cls-5">
      <text class="cls-8" transform="translate(37.26 68.86)"><tspan x="0" y="0">Free booking, beyond 20-mins past </tspan><tspan x="-37.26" y="22.02">booking time, the reservation will be cancelled</tspan></text>
    </g>
    <g>
      <path class="cls-13" d="M7.37,28.11v-1.34l3.75-1.23V2.49l-3.75-.55V.44h9.05l8.3,22.22L33.14,.44h8.7V1.78l-3.75,1.27V26.05l3.75,.59v1.46h-11.23v-1.34l3.75-1.23V4.03l-9.33,23.8-1.98,.55L13.5,3.44V26.05l3.75,.59v1.46H7.37Z"/>
      <path class="cls-1" d="M44.01,28.11v-1.38l3.2-1.07V12.77l-3-1.42v-.79l6.25-1.7V26.13l3.2,.47v1.5h-9.65Zm2.69-23.9c-.42-.43-.63-1.02-.63-1.76s.21-1.33,.63-1.78c.42-.45,.99-.67,1.7-.67s1.32,.22,1.76,.65c.43,.44,.65,1.03,.65,1.8s-.22,1.32-.65,1.76c-.43,.44-1.02,.65-1.76,.65s-1.28-.22-1.7-.65Z"/>
      <path class="cls-12" d="M65.67,8.85c1.11,0,2.25,.16,3.44,.47V3.91l-3-1.42v-.83l6.25-1.66V25.06l3,.47v1.38l-5.89,1.62v-3.6l-4.43,3.4c-.74,.13-1.32,.2-1.74,.2-2.06,0-3.81-.8-5.28-2.39-1.46-1.59-2.19-3.76-2.19-6.5,0-3.06,.91-5.62,2.75-7.69,1.83-2.07,4.2-3.1,7.1-3.1Zm3.44,14.03V12.73c-1.16-1.16-2.62-1.74-4.39-1.74s-3.25,.73-4.31,2.19c-1.05,1.46-1.58,3.18-1.58,5.16s.49,3.54,1.46,4.92c.97,1.38,2.25,2.08,3.83,2.08,.92,0,1.84-.23,2.77-.69,.92-.46,1.66-1.05,2.21-1.76Z"/>
      <path class="cls-14" d="M76.94,28.11v-1.38l3.2-1.07V12.77l-3.12-1.46v-.79l6.05-1.66v3.99l3.91-3.64c1-.24,1.9-.36,2.69-.36,1.92,0,3.43,.6,4.53,1.8,1.09,1.2,1.64,2.89,1.64,5.08v10.4l3.2,.47v1.5h-9.61v-1.38l3.2-1.07v-9.37c0-1.45-.36-2.55-1.07-3.3-.71-.75-1.65-1.13-2.81-1.13-1.92,0-3.73,.88-5.42,2.65v11.62l3.2,.47v1.5h-9.61Z"/>
      <path class="cls-9" d="M100.62,28.11v-1.38l3.2-1.07V12.77l-3-1.42v-.79l6.25-1.7V26.13l3.2,.47v1.5h-9.65Zm2.69-23.9c-.42-.43-.63-1.02-.63-1.76s.21-1.33,.63-1.78c.42-.45,.99-.67,1.7-.67s1.32,.22,1.76,.65c.43,.44,.65,1.03,.65,1.8s-.22,1.32-.65,1.76c-.44,.44-1.02,.65-1.76,.65s-1.28-.22-1.7-.65Z"/>
      <path class="cls-4" d="M132.2,9.21v2.45l-5.89-.44c.95,.71,1.67,1.45,2.17,2.21,.5,.76,.75,1.73,.75,2.89,0,1.92-.78,3.48-2.35,4.66-1.57,1.19-3.35,1.78-5.36,1.78-1.42,0-2.71-.3-3.87-.91-.92,.47-1.38,1.2-1.38,2.17,0,.66,.24,1.2,.73,1.62,.49,.42,1.18,.63,2.08,.63h7.43c1.61,0,2.89,.38,3.83,1.13,.95,.75,1.42,1.81,1.42,3.18,0,2.11-1.1,3.81-3.3,5.1-2.2,1.29-4.76,1.94-7.69,1.94-2.37,0-4.39-.44-6.05-1.3s-2.49-2.1-2.49-3.68c0-.47,.09-.91,.28-1.3l3.99-2.45c-.9-.4-1.59-.96-2.09-1.7-.5-.74-.75-1.53-.75-2.37,0-.79,.25-1.52,.75-2.19,.5-.67,1.19-1.18,2.05-1.52-1.71-1.37-2.57-3.18-2.57-5.42,0-1.95,.71-3.58,2.13-4.88,1.42-1.3,3.2-1.96,5.34-1.96,.71,0,1.65,.12,2.81,.36h8.02Zm-16.48,23.24c0,1.03,.54,1.82,1.62,2.39,1.08,.57,2.48,.85,4.19,.85,2.08,0,3.78-.43,5.1-1.28,1.32-.86,1.98-1.81,1.98-2.87,0-.66-.29-1.2-.87-1.62-.58-.42-1.37-.63-2.37-.63h-6.8c-1.9,.71-2.85,1.77-2.85,3.16Zm10.24-16.37c0-1.55-.41-2.83-1.23-3.81s-1.91-1.48-3.28-1.48c-1.29,0-2.31,.45-3.06,1.34-.75,.9-1.13,2.06-1.13,3.48,0,1.53,.42,2.78,1.25,3.75,.83,.98,1.94,1.46,3.34,1.46,1.32,0,2.33-.43,3.04-1.28,.71-.86,1.07-2.01,1.07-3.46Z"/>
      <path class="cls-10" d="M133.19,28.11v-1.38l3.2-1.07V3.91l-3-1.38v-.83l6.25-1.7V12.57l3.64-3.36c.95-.24,1.84-.36,2.69-.36,1.9,0,3.4,.61,4.51,1.84,1.11,1.23,1.66,2.91,1.66,5.04v10.4l3.2,.47v1.5h-9.61v-1.38l3.2-1.07v-9.37c0-1.45-.36-2.55-1.07-3.3s-1.65-1.13-2.81-1.13c-1.92,0-3.73,.88-5.42,2.65v11.62l3.2,.47v1.5h-9.65Z"/>
      <path class="cls-15" d="M163.07,11.31v11.03c0,2.48,1.03,3.72,3.08,3.72,.58,0,1.48-.14,2.69-.43v1.62c-1.19,.87-2.57,1.3-4.15,1.3-1.48,0-2.65-.44-3.52-1.32-.87-.88-1.3-2.21-1.3-3.97V11.15h-4.15v-1.42l4.15-1.15v-3.87l3.2-.95v5.46h5.53v2.1h-5.53Z"/>
      <path class="cls-11" d="M187.23,28.11v-1.34l3.79-1.23V2.33h-6.05l-3.44,5.1h-1.23l.4-7h24.39l.4,7h-1.23l-3.4-5.1h-6.05V26.05l3.76,.59v1.46h-11.35Z"/>
      <path class="cls-7" d="M223,22.06l.83,1.11c-.76,1.71-1.84,3.04-3.24,3.97-1.4,.94-2.91,1.4-4.55,1.4-2.35,0-4.36-.88-6.05-2.65-1.69-1.77-2.53-4.1-2.53-7s.89-5.4,2.67-7.25,3.93-2.79,6.46-2.79c2.21,0,3.96,.74,5.24,2.21,1.28,1.48,1.92,3.54,1.92,6.21,0,.5-.01,.84-.04,1.03h-13.2c.08,2.19,.75,3.94,2.02,5.26,1.27,1.32,2.78,1.98,4.55,1.98,2.5,0,4.48-1.16,5.93-3.48Zm-12.37-5.69h9.8c0-1.84-.4-3.24-1.19-4.19-.79-.95-1.86-1.42-3.2-1.42s-2.55,.53-3.54,1.58c-.99,1.05-1.62,2.4-1.88,4.03Z"/>
      <path class="cls-6" d="M226.2,28.11v-1.38l3.2-1.07V12.77l-3.12-1.46v-.79l6.05-1.66v4.74l4.35-4.55c1.61,0,2.83,.2,3.68,.59l-.99,3.83c-.79-.37-1.66-.55-2.61-.55-1.66,0-3.04,.79-4.15,2.37v10.83l3.24,.47v1.5h-9.64Z"/>
      <path class="cls-16" d="M241.54,28.11v-1.38l3.2-1.07V12.77l-3.12-1.46v-.79l6.05-1.66v4.74l4.35-4.55c1.61,0,2.83,.2,3.68,.59l-.99,3.83c-.79-.37-1.66-.55-2.61-.55-1.66,0-3.04,.79-4.15,2.37v10.83l3.24,.47v1.5h-9.65Z"/>
      <path class="cls-17" d="M269.25,24.51l-3.76,3.48c-.79,.37-1.73,.55-2.81,.55-1.53,0-2.78-.51-3.76-1.54s-1.46-2.25-1.46-3.68c0-1.26,.43-2.37,1.28-3.32s2.1-1.58,3.74-1.9l6.09-1.27v-1.74c0-3.06-1.17-4.59-3.52-4.59-1.16,0-2.07,.42-2.73,1.25-.66,.83-.99,1.89-.99,3.18l.04,.75h-1.5l-1.78-3.99c2.13-1.9,4.61-2.85,7.43-2.85,1.84,0,3.34,.47,4.49,1.42,1.15,.95,1.72,2.28,1.72,3.99v9.84c0,1.48,.43,2.21,1.3,2.21,.76,0,1.41-.38,1.94-1.15l.4,1.15c-.53,1.48-1.56,2.21-3.08,2.21-2.03,0-3.04-1.34-3.04-4.03Zm-.67-1.3v-4.66l-4.31,.99c-1.16,.24-2.04,.68-2.65,1.32-.61,.65-.91,1.38-.91,2.19s.26,1.46,.77,2c.51,.54,1.19,.81,2.04,.81,1.45,0,3.14-.88,5.06-2.65Z"/>
      <path class="cls-3" d="M289.69,15.3c0-1.4-.4-2.51-1.21-3.34-.8-.83-1.79-1.25-2.95-1.25-1.48,0-2.75,.62-3.83,1.86-1.08,1.24-1.62,2.94-1.62,5.1,0,2.35,.65,4.24,1.96,5.69,1.3,1.45,2.85,2.17,4.64,2.17,2.35,0,4.23-1.16,5.65-3.48l.87,1.15c-.79,1.71-1.87,3.03-3.24,3.95-1.37,.92-2.91,1.38-4.62,1.38-2.56,0-4.59-.95-6.11-2.85-1.52-1.9-2.27-4.16-2.27-6.8,0-2.77,.84-5.13,2.51-7.1,1.67-1.96,3.99-2.94,6.94-2.94,2.21,0,4.36,.61,6.44,1.82l-1.74,5.26h-1.46c.03-.13,.04-.34,.04-.63Z"/>
      <path class="cls-2" d="M311.11,22.06l.83,1.11c-.76,1.71-1.85,3.04-3.24,3.97s-2.91,1.4-4.54,1.4c-2.35,0-4.36-.88-6.05-2.65-1.69-1.77-2.53-4.1-2.53-7s.89-5.4,2.67-7.25,3.93-2.79,6.46-2.79c2.21,0,3.96,.74,5.24,2.21,1.28,1.48,1.92,3.54,1.92,6.21,0,.5-.01,.84-.04,1.03h-13.2c.08,2.19,.75,3.94,2.02,5.26,1.26,1.32,2.78,1.98,4.55,1.98,2.5,0,4.48-1.16,5.93-3.48Zm-12.37-5.69h9.8c0-1.84-.39-3.24-1.19-4.19-.79-.95-1.86-1.42-3.2-1.42s-2.55,.53-3.54,1.58c-.99,1.05-1.61,2.4-1.88,4.03Z"/>
    </g>
  </g>
</svg>