<?xml version="1.0" encoding="UTF-8"?>
<svg id="Layer_2" data-name="Layer 2" xmlns="http://www.w3.org/2000/svg" xmlns:xlink="http://www.w3.org/1999/xlink" viewBox="0 0 323.78 86.96">
  <defs>
    <style>
      .cls-1 {
        fill: url(#linear-gradient-2);
      }

      .cls-2 {
        fill: url(#linear-gradient-15);
      }

      .cls-3 {
        fill: url(#linear-gradient-14);
      }

      .cls-4 {
        fill: url(#linear-gradient-6);
      }

      .cls-5 {
        opacity: .52;
      }

      .cls-6 {
        fill: url(#linear-gradient-11);
      }

      .cls-7 {
        fill: url(#linear-gradient-10);
      }

      .cls-8 {
        fill: #fbd2c7;
        font-family: OpenSans-Regular, 'Open Sans';
        font-size: 15.02px;
        font-variation-settings: ';
      }

      .cls-9 {
        fill: url(#linear-gradient-5);
      }

      .cls-10 {
        fill: url(#linear-gradient-7);
      }

      .cls-11 {
        fill: url(#linear-gradient-9);
      }

      .cls-12 {
        fill: url(#linear-gradient-3);
      }

      .cls-13 {
        fill: url(#linear-gradient);
      }

      .cls-14 {
        fill: url(#linear-gradient-4);
      }

      .cls-15 {
        fill: url(#linear-gradient-8);
      }

      .cls-16 {
        fill: url(#linear-gradient-12);
      }

      .cls-17 {
        fill: url(#linear-gradient-13);
      }
    </style>
    <linearGradient id="linear-gradient" x1="-2.88" y1="21.22" x2="560.72" y2="-131.96" gradientUnits="userSpaceOnUse">
      <stop offset="0" stop-color="#fef3f0"/>
      <stop offset=".47" stop-color="#d37765"/>
      <stop offset="1" stop-color="#86270d"/>
    </linearGradient>
    <linearGradient id="linear-gradient-2" x1=".25" y1="32.75" x2="563.86" y2="-120.43" xlink:href="#linear-gradient"/>
    <linearGradient id="linear-gradient-3" x1="1.72" y1="38.13" x2="565.32" y2="-115.04" xlink:href="#linear-gradient"/>
    <linearGradient id="linear-gradient-4" x1="2.3" y1="40.28" x2="565.9" y2="-112.9" xlink:href="#linear-gradient"/>
    <linearGradient id="linear-gradient-5" x1="3.17" y1="43.47" x2="566.77" y2="-109.71" xlink:href="#linear-gradient"/>
    <linearGradient id="linear-gradient-6" x1="5.62" y1="52.5" x2="569.22" y2="-100.68" xlink:href="#linear-gradient"/>
    <linearGradient id="linear-gradient-7" x1="6.98" y1="57.51" x2="570.59" y2="-95.67" xlink:href="#linear-gradient"/>
    <linearGradient id="linear-gradient-8" x1="8.68" y1="63.77" x2="572.29" y2="-89.41" xlink:href="#linear-gradient"/>
    <linearGradient id="linear-gradient-9" x1="9.97" y1="68.51" x2="573.58" y2="-84.66" xlink:href="#linear-gradient"/>
    <linearGradient id="linear-gradient-10" x1="11.66" y1="74.73" x2="575.27" y2="-78.45" xlink:href="#linear-gradient"/>
    <linearGradient id="linear-gradient-11" x1="12.84" y1="79.05" x2="576.44" y2="-74.13" xlink:href="#linear-gradient"/>
    <linearGradient id="linear-gradient-12" x1="13.89" y1="82.93" x2="577.49" y2="-70.25" xlink:href="#linear-gradient"/>
    <linearGradient id="linear-gradient-13" x1="15.25" y1="87.94" x2="578.85" y2="-65.24" xlink:href="#linear-gradient"/>
    <linearGradient id="linear-gradient-14" x1="16.44" y1="92.31" x2="580.04" y2="-60.87" xlink:href="#linear-gradient"/>
    <linearGradient id="linear-gradient-15" x1="17.72" y1="97.03" x2="581.33" y2="-56.15" xlink:href="#linear-gradient"/>
  </defs>
  <g id="Layer_1-2" data-name="Layer 1">
    <g class="cls-5">
      <text class="cls-8" transform="translate(37.26 60.86)"><tspan x="0" y="0">Free booking, beyond 20-mins past </tspan><tspan x="-37.26" y="22.02">booking time, the reservation will be cancelled</tspan></text>
    </g>
    <g>
      <path class="cls-13" d="M17.03,28.11v-1.34l3.76-1.23V2.49l-3.76-.55V.43h12.93c2.58,0,4.64,.78,6.19,2.33,1.54,1.56,2.31,3.44,2.31,5.65,0,2.35-.86,4.38-2.59,6.09-1.73,1.71-4.11,2.57-7.13,2.57-.63,0-1.28-.04-1.94-.12v-1.5c5.11,0,7.67-2.12,7.67-6.36,0-2.03-.54-3.66-1.62-4.9-1.08-1.24-2.6-1.86-4.55-1.86h-3.71V26.05l3.75,.59v1.46h-11.3Z"/>
      <path class="cls-1" d="M52.8,24.51l-3.75,3.48c-.79,.37-1.73,.55-2.81,.55-1.53,0-2.78-.51-3.75-1.54-.98-1.03-1.46-2.25-1.46-3.68,0-1.26,.43-2.37,1.29-3.32,.86-.95,2.1-1.58,3.73-1.9l6.09-1.26v-1.74c0-3.06-1.17-4.58-3.52-4.58-1.16,0-2.07,.42-2.73,1.25-.66,.83-.99,1.89-.99,3.18l.04,.75h-1.5l-1.78-3.99c2.13-1.9,4.61-2.85,7.43-2.85,1.84,0,3.34,.47,4.49,1.42s1.72,2.28,1.72,3.99v9.84c0,1.48,.44,2.21,1.3,2.21,.76,0,1.41-.38,1.94-1.15l.39,1.15c-.53,1.48-1.55,2.21-3.08,2.21-2.03,0-3.04-1.34-3.04-4.03Zm-.67-1.3v-4.66l-4.31,.99c-1.16,.24-2.04,.68-2.65,1.32-.61,.65-.91,1.38-.91,2.19s.26,1.46,.77,2,1.19,.81,2.04,.81c1.45,0,3.14-.88,5.06-2.65Z"/>
      <path class="cls-12" d="M59.92,28.11v-1.38l3.2-1.07V12.77l-3.12-1.46v-.79l6.05-1.66v3.99l3.91-3.64c1-.24,1.9-.36,2.69-.36,1.92,0,3.43,.6,4.53,1.8,1.09,1.2,1.64,2.89,1.64,5.08v10.4l3.2,.47v1.5h-9.61v-1.38l3.2-1.07v-9.37c0-1.45-.36-2.55-1.07-3.3-.71-.75-1.65-1.13-2.81-1.13-1.92,0-3.73,.88-5.42,2.65v11.62l3.2,.47v1.5h-9.61Z"/>
      <path class="cls-14" d="M89.77,11.3v11.03c0,2.48,1.03,3.72,3.08,3.72,.58,0,1.48-.14,2.69-.43v1.62c-1.19,.87-2.57,1.3-4.15,1.3-1.48,0-2.65-.44-3.52-1.33-.87-.88-1.3-2.21-1.3-3.97V11.15h-4.15v-1.42l4.15-1.15v-3.88l3.2-.95v5.46h5.53v2.09h-5.53Z"/>
      <path class="cls-9" d="M97.12,28.11v-1.38l3.2-1.07V3.91l-3-1.38v-.83l6.25-1.7V12.57l3.64-3.36c.95-.24,1.84-.36,2.69-.36,1.9,0,3.4,.61,4.51,1.84,1.11,1.23,1.66,2.91,1.66,5.04v10.4l3.2,.47v1.5h-9.61v-1.38l3.2-1.07v-9.37c0-1.45-.36-2.55-1.07-3.3s-1.65-1.13-2.81-1.13c-1.92,0-3.73,.88-5.42,2.65v11.62l3.2,.47v1.5h-9.65Z"/>
      <path class="cls-4" d="M136.77,22.06l.83,1.11c-.76,1.71-1.84,3.04-3.24,3.97-1.4,.94-2.91,1.4-4.55,1.4-2.35,0-4.36-.88-6.05-2.65-1.69-1.76-2.53-4.1-2.53-7s.89-5.4,2.67-7.25c1.78-1.86,3.93-2.79,6.46-2.79,2.21,0,3.96,.74,5.24,2.21s1.92,3.54,1.92,6.21c0,.5-.01,.84-.04,1.03h-13.2c.08,2.19,.75,3.94,2.02,5.26,1.26,1.32,2.78,1.98,4.54,1.98,2.5,0,4.48-1.16,5.93-3.48Zm-12.37-5.69h9.8c0-1.84-.4-3.24-1.19-4.19s-1.86-1.42-3.2-1.42-2.55,.53-3.54,1.58c-.99,1.05-1.62,2.4-1.88,4.03Z"/>
      <path class="cls-10" d="M159.02,18.66c0,2.82-.88,5.17-2.63,7.06-1.75,1.88-4,2.83-6.74,2.83s-4.91-.94-6.58-2.81-2.51-4.19-2.51-6.96,.88-5.18,2.63-7.08c1.75-1.9,4-2.85,6.74-2.85s4.88,.94,6.56,2.83c1.69,1.88,2.53,4.21,2.53,6.98Zm-3.79,.55c0-2.37-.52-4.38-1.56-6.03-1.04-1.65-2.43-2.47-4.17-2.47-1.58,0-2.83,.7-3.75,2.09-.92,1.4-1.38,3.22-1.38,5.46,0,2.37,.52,4.38,1.56,6.03,1.04,1.65,2.42,2.47,4.13,2.47,1.58,0,2.84-.7,3.78-2.1,.93-1.4,1.4-3.21,1.4-5.46Z"/>
      <path class="cls-15" d="M161.2,28.11v-1.38l3.2-1.07V12.77l-3.12-1.46v-.79l6.05-1.66v3.99l3.91-3.64c1-.24,1.9-.36,2.69-.36,1.92,0,3.43,.6,4.53,1.8,1.09,1.2,1.64,2.89,1.64,5.08v10.4l3.2,.47v1.5h-9.61v-1.38l3.2-1.07v-9.37c0-1.45-.36-2.55-1.07-3.3-.71-.75-1.65-1.13-2.81-1.13-1.92,0-3.73,.88-5.42,2.65v11.62l3.2,.47v1.5h-9.61Z"/>
      <path class="cls-11" d="M201.32,11.3v11.03c0,2.48,1.03,3.72,3.08,3.72,.58,0,1.48-.14,2.69-.43v1.62c-1.19,.87-2.57,1.3-4.15,1.3-1.48,0-2.65-.44-3.52-1.33-.87-.88-1.3-2.21-1.3-3.97V11.15h-4.15v-1.42l4.15-1.15v-3.88l3.2-.95v5.46h5.54v2.09h-5.54Z"/>
      <path class="cls-7" d="M224.6,22.06l.83,1.11c-.76,1.71-1.84,3.04-3.24,3.97-1.4,.94-2.91,1.4-4.55,1.4-2.35,0-4.36-.88-6.05-2.65-1.69-1.76-2.53-4.1-2.53-7s.89-5.4,2.67-7.25c1.78-1.86,3.93-2.79,6.46-2.79,2.21,0,3.96,.74,5.24,2.21s1.92,3.54,1.92,6.21c0,.5-.01,.84-.04,1.03h-13.2c.08,2.19,.75,3.94,2.02,5.26,1.26,1.32,2.78,1.98,4.54,1.98,2.5,0,4.48-1.16,5.93-3.48Zm-12.37-5.69h9.8c0-1.84-.4-3.24-1.19-4.19s-1.86-1.42-3.2-1.42-2.55,.53-3.54,1.58c-.99,1.05-1.62,2.4-1.88,4.03Z"/>
      <path class="cls-6" d="M227.8,28.11v-1.38l3.2-1.07V12.77l-3.12-1.46v-.79l6.05-1.66v4.74l4.35-4.54c1.61,0,2.83,.2,3.68,.59l-.99,3.83c-.79-.37-1.66-.55-2.61-.55-1.66,0-3.04,.79-4.15,2.37v10.83l3.24,.47v1.5h-9.65Z"/>
      <path class="cls-16" d="M243.14,28.11v-1.38l3.2-1.07V12.77l-3.12-1.46v-.79l6.05-1.66v4.74l4.35-4.54c1.61,0,2.83,.2,3.68,.59l-.99,3.83c-.79-.37-1.66-.55-2.61-.55-1.66,0-3.04,.79-4.15,2.37v10.83l3.24,.47v1.5h-9.65Z"/>
      <path class="cls-17" d="M270.85,24.51l-3.75,3.48c-.79,.37-1.73,.55-2.81,.55-1.53,0-2.78-.51-3.76-1.54-.97-1.03-1.46-2.25-1.46-3.68,0-1.26,.43-2.37,1.29-3.32,.86-.95,2.1-1.58,3.74-1.9l6.09-1.26v-1.74c0-3.06-1.17-4.58-3.52-4.58-1.16,0-2.07,.42-2.73,1.25s-.99,1.89-.99,3.18l.04,.75h-1.5l-1.78-3.99c2.13-1.9,4.61-2.85,7.43-2.85,1.84,0,3.34,.47,4.49,1.42s1.72,2.28,1.72,3.99v9.84c0,1.48,.43,2.21,1.3,2.21,.76,0,1.41-.38,1.94-1.15l.4,1.15c-.53,1.48-1.56,2.21-3.08,2.21-2.03,0-3.04-1.34-3.04-4.03Zm-.67-1.3v-4.66l-4.31,.99c-1.16,.24-2.04,.68-2.65,1.32-.61,.65-.91,1.38-.91,2.19s.26,1.46,.77,2c.51,.54,1.19,.81,2.04,.81,1.45,0,3.13-.88,5.06-2.65Z"/>
      <path class="cls-3" d="M291.29,15.3c0-1.4-.4-2.51-1.21-3.34-.8-.83-1.79-1.24-2.95-1.24-1.48,0-2.75,.62-3.83,1.86-1.08,1.24-1.62,2.94-1.62,5.1,0,2.35,.65,4.24,1.96,5.69,1.3,1.45,2.85,2.17,4.64,2.17,2.35,0,4.23-1.16,5.65-3.48l.87,1.15c-.79,1.71-1.87,3.03-3.24,3.95-1.37,.92-2.91,1.38-4.62,1.38-2.56,0-4.59-.95-6.11-2.85-1.52-1.9-2.27-4.16-2.27-6.8,0-2.77,.84-5.13,2.51-7.1,1.67-1.96,3.99-2.94,6.94-2.94,2.21,0,4.36,.61,6.44,1.82l-1.74,5.26h-1.46c.03-.13,.04-.34,.04-.63Z"/>
      <path class="cls-2" d="M312.71,22.06l.83,1.11c-.77,1.71-1.85,3.04-3.24,3.97s-2.91,1.4-4.55,1.4c-2.35,0-4.36-.88-6.05-2.65-1.69-1.76-2.53-4.1-2.53-7s.89-5.4,2.67-7.25c1.78-1.86,3.93-2.79,6.46-2.79,2.21,0,3.96,.74,5.24,2.21s1.92,3.54,1.92,6.21c0,.5-.01,.84-.04,1.03h-13.2c.08,2.19,.75,3.94,2.02,5.26,1.27,1.32,2.78,1.98,4.55,1.98,2.5,0,4.48-1.16,5.93-3.48Zm-12.37-5.69h9.8c0-1.84-.39-3.24-1.19-4.19s-1.86-1.42-3.2-1.42-2.55,.53-3.54,1.58-1.61,2.4-1.88,4.03Z"/>
    </g>
  </g>
</svg>