<?xml version="1.0" encoding="utf-8"?>
<!-- Generator: Adobe Illustrator 25.4.1, SVG Export Plug-In . SVG Version: 6.00 Build 0)  -->
<svg version="1.1" id="Layer_1" xmlns="http://www.w3.org/2000/svg" xmlns:xlink="http://www.w3.org/1999/xlink" x="0px" y="0px"
	 viewBox="0 0 192 192" style="enable-background:new 0 0 192 192;" xml:space="preserve">
<style type="text/css">
	.st0{fill:#030304;}
	.st1{fill:#FAD2C8;}
</style>
<g>
	<path class="st0" d="M144.74,189.62H47.26c-24.78,0-44.88-20.09-44.88-44.88V47.26c0-24.78,20.09-44.88,44.88-44.88h97.48
		c24.78,0,44.88,20.09,44.88,44.88v97.48C189.62,169.52,169.52,189.62,144.74,189.62z"/>
	<g>
		<path class="st1" d="M97.01,44.61l-2.51-2.48c-6.7-6.19-15.41-9.59-24.54-9.59c-19.95,0-36.18,16.23-36.18,36.18
			c0,8.42,2.96,16.62,8.33,23.09l3.46,3.7l-2.75,2.79c-6.18,6.7-9.59,15.41-9.59,24.54c0,19.95,16.23,36.18,36.18,36.18
			c8.42,0,16.62-2.96,23.09-8.33l4.03-3.77l2.53,2.51c6.7,6.19,15.41,9.59,24.54,9.59c19.95,0,36.18-16.23,36.18-36.18
			c0-8.42-2.96-16.62-8.33-23.09l-3.49-3.72l2.73-2.76c6.19-6.7,9.59-15.42,9.59-24.54c0-19.95-16.23-36.18-36.18-36.18
			c-8.42,0-16.62,2.96-23.09,8.33L97.01,44.61z M111.15,53.15c3.62-2.98,8.19-4.63,12.89-4.63c11.17,0,20.27,9.09,20.27,20.27
			c0,4.65-1.61,9.18-4.53,12.78l-36.06,36.08l-2.54-2.56l35.65-35.38l0.2-0.22c2.52-3.01,3.9-6.84,3.9-10.77
			c0-9.27-7.54-16.81-16.81-16.81c-4.2,0-8.23,1.56-11.28,4.35l-2.14,1.87l-2.5-2.47L111.15,53.15z M115.17,129.2l14.84-15.01
			l1.36,1.56c1.77,1.94,2.75,4.46,2.75,7.09c0,5.8-4.72,10.52-10.52,10.52c-2.42,0-4.77-0.83-6.63-2.35L115.17,129.2z
			 M112.61,135.55l0.22,0.2c3.01,2.52,6.84,3.9,10.77,3.9c9.27,0,16.81-7.54,16.81-16.81c0-4.2-1.56-8.23-4.35-11.28l-1.62-1.85
			l2.47-2.5l2.26,2.68c2.98,3.62,4.63,8.19,4.63,12.89c0,11.18-9.09,20.27-20.27,20.27c-4.65,0-9.18-1.61-12.78-4.54l-35.87-35.85
			l2.56-2.54L112.61,135.55z M78.37,128.98l-1.88,1.64c-1.94,1.77-4.46,2.75-7.09,2.75c-5.8,0-10.52-4.72-10.52-10.52
			c0-2.42,0.84-4.77,2.35-6.63l2.11-2.09L78.37,128.98z M56.69,111.85l-0.2,0.22c-2.52,3.01-3.9,6.84-3.9,10.77
			c0,9.27,7.54,16.81,16.81,16.81c4.21,0,8.23-1.56,11.28-4.35l2.17-1.9l2.5,2.47l-3,2.53c-3.62,2.98-8.19,4.63-12.89,4.63
			c-11.18,0-20.27-9.09-20.27-20.27c0-4.65,1.61-9.18,4.54-12.78l36.09-36.11l2.54,2.56L56.69,111.85z M78.37,62.34L63.53,77.35
			l-1.34-1.53c-1.77-1.94-2.75-4.46-2.75-7.09c0-5.8,4.72-10.52,10.52-10.52c2.42,0,4.77,0.84,6.63,2.35L78.37,62.34z M80.95,56.02
			l-0.22-0.2c-3.01-2.52-6.84-3.9-10.77-3.9c-9.27,0-16.81,7.54-16.81,16.81c0,4.21,1.56,8.23,4.35,11.28l1.59,1.83l-2.47,2.49
			l-2.24-2.65c-2.98-3.61-4.63-8.19-4.63-12.89c0-11.17,9.09-20.27,20.27-20.27c4.65,0,9.18,1.61,12.78,4.53l35.84,35.82l-2.56,2.54
			L80.95,56.02z M96.8,80.91l14.83,14.94l-14.89,14.78L81.91,95.69L96.8,80.91z M115.17,62.57l1.85-1.61
			c1.94-1.77,4.46-2.75,7.09-2.75c5.8,0,10.52,4.72,10.52,10.52c0,2.42-0.83,4.77-2.35,6.63l-2.08,2.06L115.17,62.57z M46.89,87.73
			c-4.4-5.33-6.82-12.08-6.82-19.01c0-16.49,13.41-29.9,29.9-29.9c7.54,0,14.74,2.81,20.2,7.85l35.57,35.18l-2.62,2.6L87.14,48.5
			l-0.22-0.2c-4.74-3.91-10.74-6.06-16.89-6.06c-14.64,0-26.55,11.91-26.55,26.55c0,6.15,2.15,12.15,6.09,16.92l2.63,3.1l-2.2,2.23
			L46.89,87.73z M88.41,145.92c-5.33,4.4-12.08,6.82-19.01,6.82c-16.48,0-29.9-13.41-29.9-29.9c0-7.54,2.81-14.74,7.85-20.2
			L82.8,66.81l2.6,2.62l-36.22,36.24l-0.2,0.22c-3.91,4.74-6.06,10.74-6.06,16.89c0,14.64,11.91,26.56,26.55,26.56
			c6.15,0,12.15-2.15,16.92-6.09l3.45-2.92l2.21,2.18L88.41,145.92z M146.68,103.83c4.4,5.33,6.82,12.08,6.82,19.01
			c0,16.48-13.41,29.9-29.9,29.9c-7.54,0-14.74-2.81-20.2-7.85l-35.6-35.2l2.62-2.6l36,35.98l0.22,0.2
			c4.74,3.91,10.74,6.07,16.89,6.07c14.64,0,26.55-11.91,26.55-26.56c0-6.15-2.15-12.15-6.09-16.92l-2.65-3.13l2.2-2.22
			L146.68,103.83z M154,68.73c0,7.54-2.81,14.74-7.85,20.2l-35.41,35.81l-2.6-2.62l36.19-36.21l0.2-0.22
			c3.91-4.74,6.06-10.74,6.06-16.89c0-14.64-11.91-26.55-26.55-26.55c-6.15,0-12.15,2.15-16.92,6.09l-3.42,2.9l-2.21-2.19l3.61-3.39
			c5.33-4.4,12.08-6.82,19.01-6.82C140.59,38.83,154,52.24,154,68.73z"/>
	</g>
</g>
</svg>
